<?xml version="1.0" encoding="utf-8" ?><svg xmlns="http://www.w3.org/2000/svg" xmlns:xlink="http://www.w3.org/1999/xlink" width="3200" height="3200" viewBox="0 0 3200 3200"><path fill="#183F7A" d="M1888.8 556.228C1950.47 552.791 2036.39 553.828 2097.34 563.943C2205.88 577.713 2312.48 594.182 2418.65 621.906C2493.08 641.344 2572.55 664.882 2622.6 728.004C2646.74 758.448 2661.6 796.314 2680.14 830.326C2747.14 834.655 2814.09 831.812 2862.93 886.567C2869.1 893.484 2874.81 900.907 2878.7 909.358C2895.4 945.606 2908.14 1029.85 2905.27 1070.14C2904.38 1082.57 2901.15 1096.2 2891.46 1104.82C2883.83 1111.61 2873.8 1112.93 2863.93 1111.93C2853.42 1110.87 2844.67 1106.27 2838.24 1097.81C2810.99 1061.96 2812.89 948.071 2786.58 915.596C2778.2 905.244 2765.89 900.701 2753.08 898.613C2737.96 896.148 2722.2 896.909 2706.93 897.131C2775.72 1138.85 2827.17 1372.06 2811.73 1625.56C2802.55 1776.38 2785.87 1807.99 2628.17 1826.67C2617.1 1827.98 2601.02 1833.54 2590.26 1833.51L2590.87 1831.21C2529.28 1841.62 2454.68 1849.91 2392.03 1856.61C2289.43 1867.6 2161.98 1892.2 2059.48 1881.57C1946.48 1869.85 1822.55 1846.18 1710.16 1825.2C1682.5 1880 1627.29 1883.99 1573.34 1888.67C1559.33 1889.88 1546.41 1891.41 1532.24 1890.37C1519.83 1889.42 1507.67 1886.41 1496.25 1881.46C1451.93 1862.28 1431.64 1816.67 1414.77 1774.91C1390.68 1770.78 1365.82 1766.84 1341.97 1761.81C1332.04 1760.51 1320.49 1758.13 1310.59 1756.2C1235.75 1741.63 1159.29 1732.1 1084.69 1716.83L1085.34 1674.5C1085.37 1664.4 1085.06 1653.96 1084.89 1643.83C1129.59 1645.93 1179.73 1659.94 1225.66 1661.23C1313.6 1663.71 1297.36 1571.87 1297.18 1511.8L1297.13 1496.27L1297.05 1420.55L1297.06 1402.37L1297.01 1338.79L1297.03 1321.2C1296.77 1296.16 1297.09 1270.66 1297.16 1245.58L1296.94 1211.43C1296.71 1197.63 1295.73 1176.31 1297.38 1163.2C1304.86 1156.59 1446.31 1147 1468.76 1148.27C1545.97 1152.65 1598.95 1186.8 1662.06 1227.07C1668.34 1231.07 1679.13 1241.07 1684.5 1241.68C1688.78 1237.83 1687.57 1232.9 1687.6 1227.13C1687.47 1224.23 1687.36 1221.32 1687.29 1218.4C1686.95 1205.46 1686.95 1191.66 1687.26 1178.58C1688.99 1105.18 1684.31 1030.51 1690.87 957.487C1691.4 951.542 1699.04 943.294 1702.93 939.178C1714.27 936.547 1721.54 934.527 1733.18 934.106C1743.31 931.343 1761.32 929.32 1772.43 926.821C1816.22 916.973 1874.61 910.809 1916.28 898.473C1913.35 891.329 1909.77 883.955 1909.95 876.392C1915.99 871.396 1950.66 867.24 1960.52 865.817C1971.82 864.763 1985.91 862.544 1997.2 860.683C2015.69 858.02 2033.73 855.948 2052.42 855.403C2072.56 956.533 2090.48 1058.09 2106.15 1160.01C2111.26 1192.5 2115.94 1225.05 2120.19 1257.65C2128.99 1321.95 2130.77 1376.86 2211.48 1379.02C2226.77 1379.42 2242.8 1381.33 2258.26 1380.92C2272.66 1364.2 2289.17 1340.58 2303.26 1322.4C2334.16 1282.54 2365.66 1243.16 2397.76 1204.26C2409.65 1189.63 2424.89 1169.01 2436.84 1155.54C2442.39 1158.1 2446.93 1159.39 2450.45 1164.23C2451.62 1173.1 2433.32 1193.96 2426.91 1201.48C2377.94 1258.94 2335.28 1323.51 2286.19 1380.64C2302.84 1381.4 2319.5 1381.98 2336.16 1382.36C2397.59 1303.48 2459.84 1225.23 2522.91 1147.65C2544.41 1121.18 2566.37 1092.49 2588.38 1066.73C2589.26 1074.03 2588.01 1072.71 2591.99 1077.5C2600.06 1077.14 2602.56 1071.14 2608.95 1066.98C2600.11 1081.04 2589.3 1093.03 2579.85 1106.41C2513.62 1200.17 2427.97 1289.82 2364.93 1384.41L2412.52 1384.03C2444.12 1344.02 2478.84 1302.58 2510.81 1262.5C2517.64 1253.95 2522.36 1244.46 2530.69 1237.42C2540.45 1236.95 2544.24 1245.3 2540.58 1253.87C2531.57 1274.94 2445.37 1371.46 2443.41 1384.1C2475.36 1382.99 2509.06 1384.93 2541.23 1383.76C2592.71 1381.9 2644.44 1377.02 2695.77 1374.45C2707.34 1371.24 2719.85 1371.72 2731.56 1369.05C2739.68 1367.2 2749.07 1363 2753.08 1355.15C2765.08 1331.6 2726.2 1135.78 2717.86 1099.45C2698.09 1013.4 2658.53 866.612 2616.83 792.322C2604.56 770.461 2588.62 747.728 2566.96 734.367C2512.75 700.929 2326.16 668.51 2259.17 659.214C2223.65 654.286 2187.75 651.022 2152.08 647.476C2121.69 644.455 2077.39 636.737 2048.13 644.263C2036.52 647.249 2024.33 653.725 2018.32 664.536C2008.22 682.705 2016.35 699.939 2020.06 718.189C2020.88 722.236 2021.24 724.483 2019.07 728.015C2007.53 732.192 1986.58 735.293 1973.81 737.312L1975.08 734.449C1967.02 695.593 1943.92 630.911 1913.62 604.677C1865.97 563.426 1815.06 570.945 1759.03 573.863C1787.83 564.571 1858.48 557.219 1888.8 556.228ZM1735.45 985.588C1733.79 1082.95 1736.85 1183.87 1734.12 1279.89C1779.24 1306.39 1827.61 1341.64 1871.11 1371.24C1902.43 1392.28 1946.19 1423.45 1979.11 1439.72C1974.52 1294.51 1959.46 1149.82 1934.04 1006.77C1932.21 996.918 1926.83 962.019 1921.7 956.345C1915.73 955.388 1914.03 955.937 1908.19 956.826C1854.9 969.202 1789.49 975.5 1735.45 985.588Z"/><path fill="#E4540D" d="M1297.16 1245.58L1298.97 1245.61C1387.99 1246.19 1461.63 1221.23 1546.54 1266.64C1582.65 1285.95 1617.84 1304.22 1651.49 1328.38C1656.96 1332.31 1684.3 1351.66 1688.95 1352.98C1690.91 1492.08 1688.42 1632.28 1696.45 1771.18C1686.46 1769.9 1663.47 1768.51 1657.32 1761.74C1655.72 1743.05 1656.51 1725.42 1655.45 1706.73C1652.59 1656.35 1644.27 1617.12 1620 1571.79C1611.34 1555.63 1600.43 1547.44 1595.16 1538.24C1573.67 1515.27 1549.94 1501.46 1517.73 1500.24C1426.07 1496.77 1383.51 1599.24 1382.53 1676.67C1382.34 1691.22 1382.41 1705.09 1382.66 1719.43L1364.57 1717.61C1338.06 1715.52 1292.37 1707.48 1264.79 1703.35C1204.82 1694.71 1145 1685.09 1085.34 1674.5C1085.37 1664.4 1085.06 1653.96 1084.89 1643.83C1129.59 1645.93 1179.73 1659.94 1225.66 1661.23C1313.6 1663.71 1297.36 1571.87 1297.18 1511.8L1297.13 1496.27L1297.05 1420.55L1297.06 1402.37L1297.01 1338.79L1297.03 1321.2C1296.77 1296.16 1297.09 1270.66 1297.16 1245.58Z"/><path fill="#FEFEFD" d="M1364.57 1717.61C1360.82 1650.97 1362.55 1587.38 1399.86 1529.88C1435.39 1475.14 1500.01 1452.97 1555.72 1492.17C1568.14 1500.9 1592.21 1523.32 1595.16 1538.24C1573.67 1515.27 1549.94 1501.46 1517.73 1500.24C1426.07 1496.77 1383.51 1599.24 1382.53 1676.67C1382.34 1691.22 1382.41 1705.09 1382.66 1719.43L1364.57 1717.61Z"/><path fill="#FEFEFD" d="M1586.95 1409.26C1590.92 1399.5 1594.54 1393.56 1604.59 1389.38C1644.87 1372.61 1666.25 1438.37 1627.94 1451.2C1610.2 1457.14 1593.66 1445.35 1586.58 1429.66L1386.16 1423.67C1365.26 1423.04 1315.76 1423.1 1297.05 1420.55L1297.06 1402.37C1393.67 1405.29 1490.31 1407.58 1586.95 1409.26Z"/><path fill="#FEFEFD" d="M1413.43 1318.99C1419.97 1303.12 1433.22 1289.17 1451.51 1296.76C1476.73 1307.21 1480 1351.79 1451.02 1358.97C1432.58 1363.64 1420.95 1355.19 1413.22 1338.7C1383.87 1338.98 1324.61 1341.3 1297.01 1338.79L1297.03 1321.2C1334.85 1318.64 1375.38 1318.99 1413.43 1318.99Z"/><path fill="#E4540D" d="M1439.83 1313.96C1446.98 1312.68 1453.91 1317.09 1455.76 1324.1C1457.62 1331.12 1453.77 1338.38 1446.93 1340.79C1441.99 1342.53 1436.49 1341.35 1432.7 1337.73C1428.91 1334.12 1427.47 1328.68 1428.98 1323.66C1430.48 1318.64 1434.68 1314.9 1439.83 1313.96Z"/><path fill="#FEFEFD" d="M1324.71 1497.26C1333.03 1483.49 1342.85 1475.86 1358.58 1485.48C1363.86 1488.72 1367.59 1493.96 1368.92 1500C1370.6 1507.82 1368.84 1515.99 1364.07 1522.43C1351.07 1540.01 1333.87 1528.82 1324.05 1514.62L1323.75 1514.21C1315.44 1513.67 1305.2 1513.36 1297.18 1511.8L1297.13 1496.27L1324.71 1497.26Z"/><path fill="#E4540D" d="M1997.2 860.683L2006.94 861.639C2027.13 963.332 2044.2 1065.62 2058.13 1168.36C2067.16 1230.96 2073.83 1337.21 2094.97 1391.86C2104.79 1417.25 2123.5 1437.9 2145.8 1453.19C2213.98 1499.91 2410.34 1519.09 2494.94 1518.38C2535.44 1517.97 2575.82 1513.95 2615.61 1506.37C2665.71 1496.64 2738.36 1477.85 2771.74 1437.96C2771.36 1463.63 2776.86 1517.73 2758.19 1532.83C2735.33 1551.31 2699.7 1576.94 2685.83 1603.33C2677.77 1618.66 2672.01 1639.42 2662.74 1656.17C2629.19 1666.37 2396.09 1695.66 2369.93 1680.66C2350.76 1669.67 2333.06 1622.86 2295.94 1601.66C2211.25 1553.3 2109.99 1532.64 2031.95 1472.17C2023.77 1300.45 2012.18 1138.15 1978.76 968.73C1973.22 940.647 1965.57 898.412 1959.04 869.365C1959.03 869.309 1960.14 866.295 1960.52 865.817C1971.82 864.763 1985.91 862.544 1997.2 860.683Z"/><path fill="#FEFEFD" d="M1296.94 1211.43C1328.3 1208.41 1359.71 1205.87 1391.16 1203.8C1483.35 1197.13 1522.45 1204.42 1604.56 1255.02C1629.7 1270.51 1666.3 1293.96 1689.08 1312.07L1688.95 1352.98C1684.3 1351.66 1656.96 1332.31 1651.49 1328.38C1617.84 1304.22 1582.65 1285.95 1546.54 1266.64C1461.63 1221.23 1387.99 1246.19 1298.97 1245.61L1297.16 1245.58L1296.94 1211.43Z"/><path fill="#073261" d="M1341.97 1761.81C1350.29 1754.69 1367.78 1759.22 1377.22 1762.76L1376.31 1762.6C1386.94 1767.92 1414.76 1768.91 1416.39 1772.28C1432.88 1806.22 1451.01 1850.82 1486.17 1872.56C1491.04 1875.25 1520.94 1886.83 1524.99 1886.88C1561.4 1887.25 1603.23 1882.04 1639.01 1875.91C1665.48 1871.38 1690.01 1851.19 1702.84 1828.51C1704.93 1824.82 1709.28 1821.98 1713.83 1821.65C1731.93 1823.86 1762.77 1832.26 1780.31 1832.02L1775.45 1830.64L1786.71 1832.82L1784.43 1832.88C1815.07 1840.57 1855 1844.64 1886.5 1849.6L1876.54 1848.77C1896.67 1854.07 2044.16 1882.05 2060.15 1876.79L2063.25 1871.79L2064.78 1874.01C2071.13 1874.16 2082.51 1873.04 2087.05 1874.47L2086.43 1876.52C2081.64 1877.9 2081.26 1878.24 2076.13 1878.23C2082.27 1878.69 2093.91 1880.07 2099.44 1878.89L2103.14 1874.61C2121.95 1874.26 2140.51 1874.9 2159.18 1873.69L2160.47 1875.42C2157.16 1877.55 2151.13 1878.89 2147.47 1877.82C2186.4 1876.92 2222.41 1872.68 2261.01 1868.38C2266.55 1867.77 2294.7 1865.3 2298.82 1864.18L2296.53 1862.26C2292.64 1862.88 2282.02 1865.09 2279.3 1863.36C2284.38 1860.62 2294.54 1859.84 2300.81 1858.9C2304.98 1860.55 2304.9 1860.69 2308.45 1863.54C2317.7 1863.18 2327.81 1860.53 2337.3 1859.45C2415.51 1850.5 2493.55 1838.53 2571.67 1829.95C2578.52 1829.2 2591.41 1828.25 2598.02 1829.37L2597.39 1830.77L2590.87 1831.21C2529.28 1841.62 2454.68 1849.91 2392.03 1856.61C2289.43 1867.6 2161.98 1892.2 2059.48 1881.57C1946.48 1869.85 1822.55 1846.18 1710.16 1825.2C1682.5 1880 1627.29 1883.99 1573.34 1888.67C1559.33 1889.88 1546.41 1891.41 1532.24 1890.37C1519.83 1889.42 1507.67 1886.41 1496.25 1881.46C1451.93 1862.28 1431.64 1816.67 1414.77 1774.91C1390.68 1770.78 1365.82 1766.84 1341.97 1761.81Z"/><path fill="#073261" d="M1702.93 939.178C1714.27 936.547 1721.54 934.527 1733.18 934.106C1729.23 939.085 1727.72 939.702 1721.71 941.757C1713.66 944.515 1705.91 947.07 1701.8 955.162C1689.61 979.133 1695.55 1147.01 1695.5 1186.64C1695.48 1201.05 1697.22 1232.18 1691.36 1244.02C1687.87 1236.11 1690.19 1234.15 1687.6 1227.13C1687.47 1224.23 1687.36 1221.32 1687.29 1218.4C1686.95 1205.46 1686.95 1191.66 1687.26 1178.58C1688.99 1105.18 1684.31 1030.51 1690.87 957.487C1691.4 951.542 1699.04 943.294 1702.93 939.178Z"/><path fill="#073261" d="M2443.41 1384.1C2475.36 1382.99 2509.06 1384.93 2541.23 1383.76C2592.71 1381.9 2644.44 1377.02 2695.77 1374.45C2694.62 1377.07 2694.31 1379.47 2690.91 1379.96C2670.58 1382.89 2641.1 1386.26 2621.21 1386.5L2625.04 1385.83C2606.9 1386.99 2590.35 1390.93 2572.54 1391.39C2569.74 1391.46 2558.6 1386.65 2556.35 1387.23C2519.86 1396.65 2478.09 1392.11 2440.78 1390.38C2439.6 1390.32 2438.66 1386.83 2438.25 1385.81L2438.77 1381.96L2440.53 1380.78C2441.51 1381.82 2442.74 1382.94 2443.41 1384.1Z"/><path fill="#073261" d="M1888.8 556.228C1950.47 552.791 2036.39 553.828 2097.34 563.943C2094.76 568.264 2096.76 568.337 2093.15 571.487C2073.88 570.945 2054.67 568.717 2035.46 567.112C2034.04 565.769 2032.61 564.426 2031.19 563.082L2031.09 563.373C2021.78 564.133 1994.35 567.616 1988.08 563.161C1978.04 556.034 1961.62 565.004 1948.15 563.966C1935.4 562.982 1920.43 560.665 1907.59 561.093C1899.54 561.361 1891 565.662 1882.46 566.459L1882.05 563.911C1884.06 561.833 1885.29 560.491 1887.17 558.225L1888.8 556.228Z"/><path fill="#E4540D" d="M2033.26 1529.97C2060.71 1549.03 2082.87 1553.53 2107.07 1568.11C2144.48 1581.78 2182.1 1594.8 2219.04 1609.73C2266.71 1629 2298.4 1640.83 2321.14 1689.4C2322.78 1692.94 2324.34 1696.52 2325.81 1700.13C2358.91 1725.17 2369.01 1729.06 2417.69 1725.19C2497.33 1718.86 2589.29 1712.51 2666.99 1694.34C2677.77 1691.82 2692.23 1677.16 2699.52 1669.13L2703.68 1664.76C2718.13 1663.36 2754.83 1650.4 2767.9 1643.37C2766.72 1663.18 2763.59 1683.62 2760.42 1703.16C2754.31 1740.83 2739.21 1755.67 2702.82 1762.61C2623.33 1777.78 2542.94 1786.62 2462.73 1796.45C2400.93 1803.95 2339.06 1810.83 2277.12 1817.08C2200.49 1825.22 2124.84 1834.92 2047.75 1826.8C2034.15 1825.36 2020.6 1824.08 2006.95 1823.16C2039.56 1780.91 2032.18 1703.82 2033.03 1652.34C2033.7 1612.58 2034.3 1569.7 2033.26 1529.97Z"/><path fill="#FEFEFD" d="M2107.07 1568.11C2144.48 1581.78 2182.1 1594.8 2219.04 1609.73C2266.71 1629 2298.4 1640.83 2321.14 1689.4C2322.78 1692.94 2324.34 1696.52 2325.81 1700.13C2283.15 1704.3 2214.49 1688.32 2171.95 1680.06C2127.02 1671.33 2092.86 1612.24 2107.07 1568.11Z"/><path fill="#E4540D" d="M1734.43 1341.69C1808.09 1394.12 1903.38 1458.9 1981.27 1503.77C1981.48 1513.99 1981.39 1526.6 1982.08 1536.6C1983.32 1544.99 1983.08 1591.68 1982.69 1602.72C1980.69 1658.52 1986.91 1720.93 1974.55 1775.1C1970.44 1793.11 1962.07 1802.37 1946.65 1811.3C1879.15 1801.13 1810.16 1787.02 1742.84 1778.41C1737.71 1726.94 1737.38 1664.85 1736.63 1612.86L1734.28 1386.24C1734.23 1371.39 1734.28 1356.54 1734.43 1341.69Z"/><path fill="#FEFEFD" d="M1734.43 1341.69C1808.09 1394.12 1903.38 1458.9 1981.27 1503.77C1981.48 1513.99 1981.39 1526.6 1982.08 1536.6C1967.88 1528.39 1951.84 1519.8 1937.24 1512.31C1865.98 1475.75 1802 1428.16 1734.28 1386.24C1734.23 1371.39 1734.28 1356.54 1734.43 1341.69Z"/><path fill="#FEFEFD" d="M1513.23 1594.04C1599.7 1590 1627.06 1778.3 1533.65 1811.16C1492.3 1811.27 1471.94 1782.95 1460.4 1746.86C1443.74 1694.76 1452.47 1612.51 1513.23 1594.04Z"/><path fill="#FEFEFD" d="M2708.74 1629.68C2737.15 1583.71 2739.26 1594.23 2776.92 1561.69C2776.54 1592.62 2774.7 1612.86 2767.9 1643.37C2754.83 1650.4 2718.13 1663.36 2703.68 1664.76L2699.52 1669.13C2693.35 1660.27 2695.17 1652.05 2698.35 1642.61L2698.36 1643.84C2700.82 1639.08 2703.33 1634.35 2705.89 1629.63L2708.74 1629.68Z"/><path fill="#073261" d="M2699.52 1669.13C2693.35 1660.27 2695.17 1652.05 2698.35 1642.61L2698.36 1643.84C2700.82 1639.08 2703.33 1634.35 2705.89 1629.63L2708.74 1629.68C2703.99 1643.98 2699.9 1650.55 2703.68 1664.76L2699.52 1669.13Z"/><defs><linearGradient id="gradient_0" gradientUnits="userSpaceOnUse" x1="1079.9583" y1="1630.9706" x2="1087.2317" y2="1082.9053"><stop offset="0" stop-color="#0B3266"/><stop offset="1" stop-color="#1F63A3"/></linearGradient></defs><path fill="url(#gradient_0)" d="M1069.68 1056.2C1102.05 1053.36 1225.84 1022.69 1246.78 1029.27C1259.36 1033.22 1265.59 1040.87 1271.12 1052.39C1274.32 1079.32 1272.45 1137.38 1272.68 1167.06L1273.76 1394.01C1273.44 1433.46 1273.36 1472.9 1273.52 1512.34C1273.81 1547.67 1284.87 1638.56 1233.41 1638.94C1208.27 1639.12 1173.94 1632.85 1148.31 1628.98C1114.13 1623.82 1079.9 1618.93 1045.64 1614.31C1005.85 1608.94 965.948 1604.97 926.22 1599.34C899.093 1595.5 894.633 1569.57 894.526 1546.47C894.214 1479.65 896.441 1413.15 895.712 1346.29L894.181 1206.14C893.939 1179.68 893.002 1151.87 895.029 1125.98C896.832 1102.96 907.326 1084.78 930.979 1080.94C974.967 1073.79 1025.81 1060.57 1069.68 1056.2Z"/><defs><linearGradient id="gradient_1" gradientUnits="userSpaceOnUse" x1="1178.2706" y1="1570.2279" x2="1003.6434" y2="1103.5558"><stop offset="0" stop-color="#8DD1F5"/><stop offset="1" stop-color="#F0FCFF"/></linearGradient></defs><path fill="url(#gradient_1)" d="M1207.83 1078.63C1213.56 1078.13 1216.84 1077.17 1221.78 1079.95L1225.16 1084.27C1234.33 1096.55 1225.27 1169.45 1229.47 1182.37C1227.46 1211.09 1228.64 1255.18 1228.68 1284.76L1228.61 1461.56C1228.57 1483.35 1231.5 1528.1 1226.93 1547.45C1225.93 1551.68 1222.24 1558.18 1217.88 1559.9C1212.8 1561.91 984.741 1539.32 956.714 1535.05C948.611 1533.82 940.728 1532.08 933.282 1528.58C929.774 1512.45 930.913 1457.8 930.937 1439.18L931.082 1278L930.684 1187.94C930.613 1172.94 929.769 1148.04 931.902 1134.29C932.472 1132.1 933.098 1130.27 934.525 1128.44C943.291 1117.15 1065.44 1101.85 1087.39 1098.38C1095.2 1096.66 1099.35 1096.09 1107.33 1095.36C1117.19 1092.76 1139.39 1089.64 1150.62 1087.4C1155.75 1087.36 1176.76 1083.65 1184.27 1082.82C1189.97 1081.2 1201.58 1079.65 1207.83 1078.63Z"/><path fill="#FEFEFD" d="M931.902 1134.29C932.472 1132.1 933.098 1130.27 934.525 1128.44C943.291 1117.15 1065.44 1101.85 1087.39 1098.38L1096.28 1099.36L1096.17 1100.45C1047.59 1110.58 1000.83 1119.49 951.398 1124.3C943.884 1125.03 937.42 1140.96 934.838 1147.18C931.993 1143.04 932.498 1139.84 931.902 1134.29Z"/><path fill="#FEFEFD" d="M1150.62 1087.4C1155.75 1087.36 1176.76 1083.65 1184.27 1082.82L1193.05 1083.3L1194.16 1084.74C1181.47 1095.52 1119.7 1104.61 1107.33 1095.36C1117.19 1092.76 1139.39 1089.64 1150.62 1087.4Z"/><path fill="#FEFEFD" d="M1207.83 1078.63C1213.56 1078.13 1216.84 1077.17 1221.78 1079.95L1225.16 1084.27L1223.28 1086.74C1217.82 1086.59 1212.17 1081.9 1207.83 1078.63Z"/><defs><linearGradient id="gradient_2" gradientUnits="userSpaceOnUse" x1="982.97565" y1="1297.6931" x2="1024.3695" y2="1148.3561"><stop offset="0" stop-color="#195699"/><stop offset="1" stop-color="#247EBC"/></linearGradient></defs><path fill="url(#gradient_2)" d="M1037.56 1148.19C1043.73 1149.28 1041.11 1147.91 1045.5 1152.77C1048.74 1163.32 1048.57 1203.49 1047.03 1214.68C1047.25 1230.15 1048.98 1274.58 1045.97 1287.6C1038.48 1298.11 973.827 1300.79 963.228 1294.22C959.027 1280.4 959.036 1175.77 962.925 1161.91C971.62 1154.56 993.79 1153.72 1006.63 1151.62C1012.87 1151.04 1018.25 1150.63 1024.5 1150.42L1037.56 1148.19Z"/><path fill="#1E75AD" d="M1037.56 1148.19C1043.73 1149.28 1041.11 1147.91 1045.5 1152.77C1048.74 1163.32 1048.57 1203.49 1047.03 1214.68C1046.16 1218.08 1045.34 1220.87 1044.28 1224.22C1039.91 1210.04 1047.95 1167.19 1036.61 1152.68C1031.43 1152.1 1029.45 1151.61 1024.5 1150.42L1037.56 1148.19Z"/><path fill="#22488B" d="M1129.88 1419.02C1142.51 1419.5 1180.64 1416.33 1188.41 1423.04C1196.81 1430.3 1196.32 1482.27 1188.91 1491.47C1176.28 1490.75 1137.64 1492.36 1129.49 1485.63C1119.52 1477.4 1120.38 1429.75 1129.88 1419.02Z"/><defs><linearGradient id="gradient_3" gradientUnits="userSpaceOnUse" x1="1074.7675" y1="1363.3112" x2="1079.8284" y2="1321.8149"><stop offset="0" stop-color="#11417F"/><stop offset="1" stop-color="#1C5C9C"/></linearGradient></defs><path fill="url(#gradient_3)" d="M1094.03 1333.56C1125.16 1333.1 1156.4 1332.24 1187.49 1332.22C1196.03 1332.22 1194.71 1344.02 1191.72 1349.83C1185.05 1355.67 1155.9 1353.69 1145.53 1353.77L1064.84 1354.44C1033.54 1354.58 997.368 1355.08 965.788 1354.31C963.429 1354.25 963.496 1353.18 961.708 1350.7C961.193 1345.15 960.619 1344.48 963.144 1339.48C970.622 1333.58 1076.37 1333.9 1094.03 1333.56Z"/><path fill="#22488B" d="M963.836 1377.01C1017.08 1376.85 1070.33 1376.65 1123.58 1376.62C1134.15 1376.61 1148.51 1374.05 1153.16 1384.42C1153.05 1391.08 1152.68 1391.33 1149.16 1397.25C1130.13 1397.89 968.525 1395.38 963.358 1392.76C961.669 1391.9 960.921 1390.13 960.727 1388.29C960.279 1384.02 961.804 1380.64 963.836 1377.01Z"/><path fill="#1E75AD" d="M1165.96 1135.94L1155.7 1135.43L1156.49 1135.97L1154.75 1133.98C1165.64 1130.45 1175.74 1127.8 1185.76 1133.53C1197.24 1135.34 1196.33 1145.76 1188.96 1152.28C1173.02 1156.11 1094.77 1165.33 1077.64 1165.37C1072.29 1161.46 1073.45 1154.83 1073.48 1148.48L1072.52 1148L1073.44 1146.16C1083.54 1139.2 1106.44 1135.95 1117.07 1142.66C1133.04 1140.69 1150.24 1138.91 1165.96 1135.94Z"/><path fill="#FEFEFD" d="M1073.48 1148.48L1072.52 1148L1073.44 1146.16C1083.54 1139.2 1106.44 1135.95 1117.07 1142.66L1073.48 1148.48Z"/><path fill="#FEFEFD" d="M1165.96 1135.94L1155.7 1135.43L1156.49 1135.97L1154.75 1133.98C1165.64 1130.45 1175.74 1127.8 1185.76 1133.53C1179.99 1134.45 1171.56 1136.12 1165.96 1135.94Z"/><defs><linearGradient id="gradient_4" gradientUnits="userSpaceOnUse" x1="1025.3849" y1="1486.2756" x2="1032.3551" y2="1454.6781"><stop offset="0" stop-color="#0B3172"/><stop offset="1" stop-color="#144985"/></linearGradient></defs><path fill="url(#gradient_4)" d="M963.826 1459.82C1003.03 1459.94 1050.47 1461.83 1089.91 1465.07C1094.6 1465.46 1095.6 1467.93 1097.46 1470.99C1097.86 1477.32 1097.21 1478.22 1095.1 1484.41C1059.14 1484.63 1004.25 1479.53 967.121 1476.88C963.473 1476.62 962.483 1473.72 961.187 1471.09C961.104 1465 961.378 1465.12 963.826 1459.82Z"/><path fill="#22488B" d="M963.051 1418.73C981.146 1418.59 1084.86 1419.07 1094.84 1424.54C1097.44 1428.74 1099.16 1439.48 1094.74 1439.42C1060.65 1438.94 997.455 1442.06 965.361 1436.1C964.175 1435.38 962.808 1433.63 961.771 1432.49C960.25 1426.64 961.416 1424.53 963.051 1418.73Z"/><path fill="#073261" d="M963.051 1418.73C973.065 1421.52 971.936 1423.97 973.396 1433.46L991.409 1434C987.217 1435.33 970.947 1435.66 965.361 1436.1C964.175 1435.38 962.808 1433.63 961.771 1432.49C960.25 1426.64 961.416 1424.53 963.051 1418.73Z"/><path fill="#22488B" d="M1169.54 1221.25C1177.91 1220.46 1200.91 1215.94 1194.84 1232.39C1182.91 1244.39 1118.37 1244.52 1098.05 1245.76C1087.85 1246.79 1078.13 1250.31 1073.3 1240.66C1074.65 1221.35 1150.96 1222.82 1169.54 1221.25Z"/><path fill="#1E75AD" d="M1142.05 1200.14C1128.47 1203.01 1088.9 1209.02 1077 1203.44C1073.23 1198.53 1074.2 1201.21 1073.82 1195.15C1079.96 1183.18 1154.62 1182.58 1170.23 1178.64C1174.42 1177.58 1186.18 1177.05 1190.49 1178.07C1194.24 1181.53 1193.98 1182.3 1195.36 1187.19C1191.01 1200.43 1155.19 1200.29 1142.05 1200.14Z"/><path fill="#22488B" d="M1190.49 1178.07C1194.24 1181.53 1193.98 1182.3 1195.36 1187.19C1191.01 1200.43 1155.19 1200.29 1142.05 1200.14L1141.77 1198.23C1160.02 1193.39 1182.4 1202.17 1186.53 1179.13L1190.49 1178.07Z"/><path fill="#22488B" d="M1116.76 1266.27L1127.57 1265.72C1132.51 1267.79 1133.14 1269.38 1136.3 1273.65C1138.97 1289.29 1106.11 1286.13 1095.07 1286.42C1086.72 1287.12 1081.62 1288.77 1075.39 1284.29C1073.23 1278.61 1073.48 1278.76 1074.18 1273.03C1080.22 1266.46 1106.29 1266.98 1116.76 1266.27Z"/><path fill="#FEFEFD" d="M1006.63 1151.62C1003.8 1151.45 1000.89 1151.05 998.058 1151.19L997.408 1149.09C1007.71 1144.71 1029.35 1138.69 1037.56 1148.19L1024.5 1150.42C1018.25 1150.63 1012.87 1151.04 1006.63 1151.62Z"/><path fill="#1E75AD" d="M1069.68 1056.2C1102.05 1053.36 1225.84 1022.69 1246.78 1029.27C1259.36 1033.22 1265.59 1040.87 1271.12 1052.39C1264.67 1078.42 1275.74 1224.09 1262.2 1236.18L1258.85 1236.86C1255.72 1234.27 1255.75 1232.68 1254.51 1228.72C1247.71 1226.64 1244.04 1227.24 1241.41 1221.13C1233.11 1201.82 1235.54 1173.92 1231.21 1154.92C1230.74 1160.91 1230.64 1178.14 1229.47 1182.37C1225.27 1169.45 1234.33 1096.55 1225.16 1084.27L1221.78 1079.95C1216.84 1077.17 1213.56 1078.13 1207.83 1078.63C1201.58 1079.65 1189.97 1081.2 1184.27 1082.82C1176.76 1083.65 1155.75 1087.36 1150.62 1087.4C1126.14 1079.99 1045.57 1097.94 1016.47 1100.74C983.29 1103.93 1000.35 1104.16 973.804 1090.14C968.535 1091.1 970.955 1089.92 966.981 1094.99C966.226 1093.37 965.47 1091.75 964.715 1090.13L957.146 1090.39L956.373 1088.72C975.8 1068.09 1057.02 1074.55 1069.68 1056.2Z"/><path fill="#FEFEFD" d="M1044.28 1571.48C1045.28 1568.74 1045.65 1565.15 1048.32 1564.3C1056.99 1561.57 1068.01 1559.52 1076.36 1564.05C1075.26 1566.9 1076.04 1565.55 1073.94 1568.04L1076.1 1568.19C1112.25 1570.89 1100.79 1599.39 1080.4 1596.78L1080.27 1595.45L1087.81 1594.45C1068.31 1590.48 1043.59 1597.43 1044.28 1571.48Z"/><path fill="#073261" d="M1044.28 1571.48C1045.28 1568.74 1045.65 1565.15 1048.32 1564.3C1056.99 1561.57 1068.01 1559.52 1076.36 1564.05C1075.26 1566.9 1076.04 1565.55 1073.94 1568.04L1076.1 1568.19C1112.25 1570.89 1100.79 1599.39 1080.4 1596.78L1080.27 1595.45L1087.81 1594.45C1092.5 1590.65 1094.6 1588.02 1094.86 1581.95C1088.65 1568.78 1055.45 1566.79 1044.28 1571.48Z"/><path fill="#22488B" d="M2066.73 755.381C2104.67 754.074 2141.44 761.54 2173.14 783.349C2210.61 809.133 2225.98 845.176 2233.97 888.674C2239.39 918.187 2257.73 1041.08 2241.51 1063.18C2234.72 1072.43 2224.83 1077.22 2213.65 1078.93C2195.86 1081.66 2174.22 1077.87 2159.62 1066.78C2133.57 1046.97 2124.23 948.657 2119.11 915.713C2116.6 899.981 2114.49 883.838 2110.5 868.414C2106.9 854.445 2100.27 840.643 2087.02 833.573C2033.74 805.128 1852.68 871.724 1816.09 849.069C1804.92 842.148 1796.76 829.25 1794.17 816.444C1793.35 812.401 1794.05 809.963 1796.59 806.634C1810.64 788.194 2031.4 757.054 2066.73 755.381Z"/><path fill="#22488B" d="M1559.51 787.911C1561.67 787.719 1563.84 787.647 1566.01 787.695C1628.63 788.654 1575.41 895.442 1534.15 837.44C1440.84 862.96 1347.22 882.347 1253.27 904.002L987.891 966.691C976.741 969.734 954.327 978.45 946.309 970.11C943.918 953.607 988.995 949.565 1002.3 946.378L1111.08 920.115L1314.01 871.236C1386.55 854.343 1459.54 833.917 1532.25 818.393C1533.9 814.155 1535.66 809.959 1537.52 805.809C1542.47 795.056 1548.99 791.708 1559.51 787.911Z"/><path fill="#E4540D" d="M1426.8 895.564C1450.32 891.777 1463.09 909.229 1459 931.381C1456.95 941.937 1450.55 951.139 1441.36 956.73C1423.2 967.874 1409.15 958.408 1399.5 942.172C1311.59 967.303 1212.37 979.562 1122.58 999.725C1111.02 1002.32 1107.02 1003.24 1100.85 1013.18C1097.05 1019.77 1093.24 1027.91 1086.21 1031.15C1081.4 1033.37 1075.88 1033.46 1071 1031.4L1070.41 1028.26C1075.28 1014.75 1098.94 986.978 1112.27 983.368C1131.49 978.164 1156.49 973.607 1176.19 969.576C1221.9 959.86 1267.66 950.417 1313.49 941.247C1331.35 937.638 1382.55 925.28 1396.61 924.218L1397.66 922.082C1405.55 905.541 1410.43 902.529 1426.8 895.564Z"/><path fill="#183F7A" d="M1546.61 952.037C1561.5 951.536 1565.42 952.835 1576.45 962.193C1588.23 990.689 1576.89 1020.48 1542.05 1020.14C1526.66 1019.99 1527.53 1012.44 1517.53 1003.91C1499.12 1002.65 1446.19 1014.1 1426.68 1018.26C1413 1039.17 1391.68 1083.79 1372.44 1096.69C1362.77 1098.19 1353.08 1099.5 1343.36 1100.64C1330.56 1103.27 1307.14 1111.47 1297.53 1102.05C1296.05 1096.18 1296.31 1096.3 1297.6 1090.67C1302.85 1085.13 1353.09 1080.15 1364.9 1078.48C1383.21 1051.74 1400.09 1024.6 1418.05 997.717C1445.93 996.639 1482.47 987.623 1510.93 984.643C1526.32 983.031 1514.48 960.036 1546.61 952.037Z"/><path fill="#1E75AD" d="M2472.99 1116.65C2475.49 1118.04 2476.63 1119.07 2478.91 1120.8C2484.22 1132.15 2474.12 1141.96 2464.64 1146.55C2457.88 1141.71 2456.06 1138.36 2459.36 1129.95C2461.83 1123.8 2466.78 1118.97 2472.99 1116.65Z"/><path fill="#E16619" d="M1062.94 1640.1L1084.89 1643.83C1085.06 1653.96 1085.37 1664.4 1085.34 1674.5L1084.69 1716.83C1159.29 1732.1 1235.75 1741.63 1310.59 1756.2C1320.49 1758.13 1332.04 1760.51 1341.97 1761.81C1365.82 1766.84 1390.68 1770.78 1414.77 1774.91C1431.64 1816.67 1451.93 1862.28 1496.25 1881.46C1507.67 1886.41 1519.83 1889.42 1532.24 1890.37C1546.41 1891.41 1559.33 1889.88 1573.34 1888.67C1627.29 1883.99 1682.5 1880 1710.16 1825.2C1822.55 1846.18 1946.48 1869.85 2059.48 1881.57C2161.98 1892.2 2289.43 1867.6 2392.03 1856.61C2454.68 1849.91 2529.28 1841.62 2590.87 1831.21L2590.26 1833.51C2585.01 1835.86 2582.95 1836.29 2579.23 1840.76L2579.44 1843.35C2592.57 1853.6 2650.23 1872.62 2667.69 1876.84C2673.22 1878.05 2679.64 1879.21 2684.87 1881.19C2727.59 1888.73 2770.9 1902.18 2814.1 1908.97C2852.79 1915.05 2903.97 1928.58 2894.63 1979.47C2886.9 2021.54 2821.4 2027.2 2785.56 2034.74C2688.23 2059.14 2588.85 2078.47 2491.39 2102.66C2441.35 2115.08 2383.46 2123.24 2334.93 2138.53C2321.09 2140.88 2308.53 2144.19 2295.03 2147.92C2313.83 2155.26 2357.68 2171.82 2376.84 2175.5C2388.27 2178.59 2399.54 2182.66 2410.96 2185.36C2415.44 2186.43 2426.17 2184.9 2429.88 2183.77C2456.12 2175.79 2680.53 2127.11 2689.91 2120.89C2690.79 2111.21 2691.6 2100.28 2701.16 2094.85C2724.98 2082.18 2750.78 2086.79 2776.52 2089.21C2802.04 2091.61 2844.25 2117.55 2804.53 2138.05C2779.05 2151.21 2739.08 2143.82 2711.89 2133.76C2685.26 2144.89 2646.37 2151.88 2617.57 2159.43C2551.57 2176.73 2481.24 2190.13 2415.93 2208.78C2391.7 2199.52 2359.49 2190.63 2334.4 2181.41C2318.32 2175.5 2272.4 2160.51 2258.27 2157.66C2248.17 2155.63 2186.79 2170.99 2172.82 2174.23C2130.49 2184.26 2088.03 2193.73 2045.45 2202.63C1948.15 2223.08 1891.45 2222.87 1796.82 2183.88C1790.32 2181.2 1751.28 2167.92 1747.24 2168.14C1699.32 2170.76 1649.74 2190.95 1602.27 2199.99C1581.12 2202.2 1472.88 2157.5 1447.72 2148.96C1402.89 2133.73 1350.71 2116.82 1309.31 2099.01C1298.68 2102.09 1292.25 2103.18 1281.7 2103.97C1221.83 2108.44 1189.66 2061.52 1269.41 2052.3C1288.12 2050.14 1307.87 2051.73 1325.89 2058C1338.45 2062.37 1334.91 2077.05 1338.1 2086.55C1339.42 2089.01 1346.42 2091.39 1349.03 2092.28C1429.35 2119.72 1514.76 2148.81 1593.45 2179.48C1621.22 2172.73 1650.06 2167.87 1677.6 2160.02C1683.98 2159.28 1698.26 2155.32 1705.18 2153.58L1684.11 2146.94C1649.43 2135.9 1614.56 2122.05 1579.63 2110.76C1412.18 2057.74 1245.47 2002.44 1079.53 1944.87C1077.7 1939.43 1072.47 1932.61 1069.07 1927.66C1064.44 1928.03 1064.73 1927.97 1060.26 1926.56C1052.73 1919.57 1049.36 1915.95 1042.8 1908.1C1050.89 1897.66 1065.03 1900.89 1064.45 1876.14C1064.21 1865.73 1059.56 1855.92 1051.66 1849.14C1040.05 1839.36 1034.45 1842.49 1021.35 1843.47L1022.91 1838.91L1021.63 1837.7C1012.83 1841.79 1012.36 1847.41 1009.44 1856.19C996.683 1852.98 902.69 1825.78 895.058 1821.74L908.561 1821.89C913.04 1818.89 911.535 1820.92 912.9 1815.38C909.724 1798.74 896.818 1799.09 883.495 1800.09L876.257 1800.22C865.111 1798.58 845.45 1800.88 831.078 1799.29C885.783 1787.65 940.712 1772.61 995.293 1759.99C1017.39 1754.88 1041.03 1749.2 1062.57 1742.37C1063.21 1708.28 1063.33 1674.19 1062.94 1640.1ZM1295.05 2085.64C1300.63 2084.96 1303.69 2085.29 1307.57 2081.36C1309.61 2076.72 1309.58 2079.03 1308.67 2074.39C1299.93 2066.12 1279.92 2068.4 1268.48 2069.28C1262.36 2070.7 1257.99 2070.88 1253.78 2075.35L1253.58 2078.13C1260.17 2084.86 1277.52 2085.5 1286.53 2085.62C1289.37 2085.65 1292.21 2085.66 1295.05 2085.64Z"/><path fill="#FEFEFD" d="M1062.94 1640.1L1084.89 1643.83C1085.06 1653.96 1085.37 1664.4 1085.34 1674.5L1084.69 1716.83C1159.29 1732.1 1235.75 1741.63 1310.59 1756.2C1320.49 1758.13 1332.04 1760.51 1341.97 1761.81C1365.82 1766.84 1390.68 1770.78 1414.77 1774.91C1431.64 1816.67 1451.93 1862.28 1496.25 1881.46C1507.67 1886.41 1519.83 1889.42 1532.24 1890.37C1546.41 1891.41 1559.33 1889.88 1573.34 1888.67C1627.29 1883.99 1682.5 1880 1710.16 1825.2C1822.55 1846.18 1946.48 1869.85 2059.48 1881.57C2161.98 1892.2 2289.43 1867.6 2392.03 1856.61C2454.68 1849.91 2529.28 1841.62 2590.87 1831.21L2590.26 1833.51C2585.01 1835.86 2582.95 1836.29 2579.23 1840.76L2579.44 1843.35C2592.57 1853.6 2650.23 1872.62 2667.69 1876.84C2650.82 1880.41 2594.34 1861.91 2574.07 1860.3C2558.97 1859.1 2544.74 1862.22 2529.61 1864.49C2522.7 1865.33 2473.55 1871 2469.03 1872.53L2472.19 1873.98C2468.62 1878.79 2465.6 1888.54 2466.37 1894.36C2468.07 1907.23 2482.65 1914.31 2481.5 1926.56L2477.26 1927.37C2478.56 1931.04 2478.15 1929.83 2480.99 1932.97L2480.17 1935.52L2476.78 1937.17C2493.36 1940.81 2552.16 1953.21 2571.44 1958.68C2571.59 1958.73 2573.46 1961.91 2573.5 1962.03C2514.06 1970.67 2442.74 1987.86 2383.16 2000.4L2155.06 2046.48L2046.44 2068.99C2007.19 2077.08 1954.18 2091.35 1915.42 2085.65C1877.91 2080.13 1833.12 2062.92 1795.78 2052.93C1709.46 2029.83 1619.53 1999.72 1532.76 1980.11C1554.08 1976.89 1639.95 1955.61 1654.09 1959.41C1669.56 1963.57 1777.68 1990.86 1786 1997.24C1786.81 2020.66 1796 2017.56 1814.4 2026.67C1842.25 2040.47 1952.46 2015.63 1882.57 1983.01C1859.3 1972.15 1826.69 1982.47 1802.89 1980.64C1796.52 1980.14 1779.5 1974 1771.95 1971.92C1745.86 1964.92 1719.84 1957.72 1693.86 1950.32C1683.6 1947.4 1657.25 1939.19 1648.25 1939.78C1611.96 1943.29 1572 1951.97 1536.4 1960.09C1499.29 1968.57 1486.05 1967.25 1450.39 1954.64C1436.93 1949.89 1420.58 1948.01 1406.46 1941.74C1399.29 1939.99 1392.09 1938.39 1384.86 1936.93C1341.01 1923.18 1281.36 1905.8 1237.02 1894.47C1206.81 1885.21 1188.07 1887.34 1157.38 1891.74C1119.92 1897.59 1092.74 1897.03 1069.07 1927.66C1064.44 1928.03 1064.73 1927.97 1060.26 1926.56C1052.73 1919.57 1049.36 1915.95 1042.8 1908.1C1050.89 1897.66 1065.03 1900.89 1064.45 1876.14C1064.21 1865.73 1059.56 1855.92 1051.66 1849.14C1040.05 1839.36 1034.45 1842.49 1021.35 1843.47L1022.91 1838.91L1021.63 1837.7C1012.83 1841.79 1012.36 1847.41 1009.44 1856.19C996.683 1852.98 902.69 1825.78 895.058 1821.74L908.561 1821.89C913.04 1818.89 911.535 1820.92 912.9 1815.38C909.724 1798.74 896.818 1799.09 883.495 1800.09L876.257 1800.22C865.111 1798.58 845.45 1800.88 831.078 1799.29C885.783 1787.65 940.712 1772.61 995.293 1759.99C1017.39 1754.88 1041.03 1749.2 1062.57 1742.37C1063.21 1708.28 1063.33 1674.19 1062.94 1640.1Z"/><path fill="#22488B" d="M1371.82 1890.09C1328.07 1876.74 1276.52 1862.76 1231.44 1851.32C1187.32 1842.45 1140.22 1820.58 1095.09 1821.53C1076.79 1823.01 1043.2 1826.31 1031.4 1809.43C1023.75 1798.5 1043.33 1785.43 1052.45 1783.88C1081.63 1778.91 1119.21 1771.97 1132.45 1804.92C1150.45 1812.11 1182.89 1819.69 1202.85 1824.96L1321.8 1856.33C1403.13 1877.9 1382.9 1865.11 1406.46 1941.74C1399.29 1939.99 1392.09 1938.39 1384.86 1936.93C1380.74 1922.62 1376.17 1903.6 1371.82 1890.09Z"/><path fill="#FEFEFD" d="M1067.58 1795.87C1075.74 1794.81 1098.68 1793.54 1103.48 1801.04C1099.49 1805.79 1097.86 1805 1090.82 1807.36C1082.9 1808.38 1058.74 1810.31 1055.18 1801.77C1058.42 1797.5 1062.22 1797.29 1067.58 1795.87Z"/><path fill="#E4540D" d="M2324.99 1890.12C2370.57 1883.09 2423.01 1878 2469.03 1872.53L2472.19 1873.98C2468.62 1878.79 2465.6 1888.54 2466.37 1894.36C2468.07 1907.23 2482.65 1914.31 2481.5 1926.56L2477.26 1927.37C2478.56 1931.04 2478.15 1929.83 2480.99 1932.97L2480.17 1935.52L2476.78 1937.17C2455.51 1932.53 2420.09 1925.72 2399.94 1919.36C2397.74 1910.3 2339.74 1907.57 2324.99 1890.12Z"/><path fill="#BE572E" d="M2292.25 1894.51C2303.15 1892.59 2314.01 1891.42 2324.99 1890.12C2339.74 1907.57 2397.74 1910.3 2399.94 1919.36C2369.53 1913.82 2321.66 1902.98 2292.25 1894.51Z"/><path fill="#E16619" d="M1702.42 1875.49C1770.56 1892.88 1838.83 1909.75 1907.23 1926.08C1939.23 1934.01 1973.48 1944.29 2005.75 1950.26C2013.11 1951.62 2033.76 1947.55 2042.51 1947.11C2062.23 1946.13 2086.56 1947.32 2102.19 1960.62C2111.17 1969.21 2113.36 1977.25 2102.1 1985.98C2083.54 2002.02 2040.32 1999.1 2017.68 1993.88C2002.63 1990.41 1995.33 1978.6 1988.62 1966.16C1967.82 1958.52 1917.08 1947.68 1893.43 1941.67L1681.83 1887.56L1702.42 1875.49Z"/><path fill="#BE572E" d="M2102.19 1960.62C2111.17 1969.21 2113.36 1977.25 2102.1 1985.98C2101.64 1983.53 2101.47 1962.64 2102.19 1960.62Z"/><path fill="#FEFEFD" d="M2034.74 1964.43C2044.7 1963.23 2078.58 1962.18 2080.42 1974.13C2077.24 1978.21 2073.22 1978.63 2068.07 1980.17C2058.01 1980.98 2025.93 1982.5 2022.15 1971.39C2025.06 1966.94 2029.47 1966.28 2034.74 1964.43Z"/><path fill="#FEFEFD" d="M2469.03 1872.53C2473.55 1871 2522.7 1865.33 2529.61 1864.49L2530.82 1867.98C2539.74 1871.46 2543.51 1875.74 2551.36 1880.36C2557.66 1884.07 2566.67 1887.79 2573.48 1890.62C2564.68 1888.9 2553.54 1885.79 2545.27 1888.61L2545.64 1890.41C2561.58 1900.49 2573.08 1896.37 2588.3 1900.78C2652.55 1919.42 2722.09 1923.45 2785.1 1945.78C2790.8 1947.81 2793.01 1962.34 2791.72 1967.4C2787.97 1975.23 2785.5 1980.21 2776.68 1982.88C2749.65 1991.05 2718.87 1996.13 2691.03 2001.87L2546.05 2032.66C2535.35 2034.7 2500.06 2039.95 2494.66 2047.63C2488.86 2070.14 2490.65 2066.92 2468.02 2072.64C2438.43 2080.11 2413.98 2069.35 2385.08 2070.48C2342.94 2076.24 2294.85 2088.7 2252.76 2097.85L2170.26 2115.97C2159.08 2118.4 2139.63 2121.86 2129.24 2125.1C2072.91 2132.86 1991.13 2161.91 1934.62 2160C1878.13 2158.09 1789.89 2124.46 1733.4 2107.13L1460.39 2022.08C1409.54 2006.11 1355.94 1988.22 1304.84 1973.85C1279.81 1963.92 1238.77 1951.83 1212.54 1946.42C1187.9 1941.33 1163.8 1959.15 1139.53 1931.77C1146.89 1904.05 1207.46 1908.78 1229.18 1916.01C1253.43 1924.07 1231.78 1933.84 1248.98 1938.78C1267.67 1944.14 1286.17 1949.22 1304.76 1955.06C1365.49 1974.19 1426.41 1992.72 1487.5 2010.65L1701.6 2075.92C1740.78 2088.41 1780.05 2100.62 1819.41 2112.55C1850.15 2121.96 1910.19 2142.72 1940.72 2140.9C1976.16 2138.8 2036.54 2123.5 2074.03 2115.79L2237.57 2081.37C2278.69 2072.84 2322.77 2064.61 2363.24 2054.5C2367.75 2047.41 2363.18 2041.29 2372.9 2035.39C2380.34 2030.88 2386.44 2028.52 2394.88 2026.62C2387.16 2027 2375.96 2026.04 2368.9 2022.78L2368.74 2020.58C2394.56 1998.43 2449.68 2012.62 2478.88 2015.71C2487.33 2017.76 2508.44 2007.56 2518.49 2007.31C2523.92 2007.17 2535.31 2004.73 2541.14 2003.62L2542.58 2001.31C2537.26 2003.51 2477.14 2007.61 2467.89 2004.68C2460.23 2002.26 2455.09 1995.28 2446.21 1995.44C2443.4 1995.49 2441.56 1995.34 2438.8 1994.45C2446.69 1992.49 2453.14 1994.88 2462.39 1992.34C2470.87 1990.02 2481.74 1989.47 2491.11 1987.65L2491.98 1985.84L2486.37 1982.69L2487.13 1981.06C2505.36 1976.92 2522.5 1979.11 2529.96 1977.49L2527.46 1973.9C2534.25 1970.92 2570.73 1969.2 2576.85 1963.4L2573.5 1962.03C2573.46 1961.91 2571.59 1958.73 2571.44 1958.68C2552.16 1953.21 2493.36 1940.81 2476.78 1937.17L2480.17 1935.52L2480.99 1932.97C2478.15 1929.83 2478.56 1931.04 2477.26 1927.37L2481.5 1926.56C2482.65 1914.31 2468.07 1907.23 2466.37 1894.36C2465.6 1888.54 2468.62 1878.79 2472.19 1873.98L2469.03 1872.53Z"/><defs><linearGradient id="gradient_5" gradientUnits="userSpaceOnUse" x1="2529.1062" y1="1915.7511" x2="2677.3662" y2="2051.7568"><stop offset="0" stop-color="#E26218"/><stop offset="1" stop-color="#F38D29"/></linearGradient></defs><path fill="url(#gradient_5)" d="M2481.5 1926.56C2496.11 1936 2530.15 1939.82 2542.3 1925.44L2541.04 1917.23C2545.52 1913.82 2574.53 1921.68 2585.87 1922.12L2588.09 1922.19C2609.2 1925.65 2634.25 1931.84 2655.39 1936.45C2695.05 1944.7 2734.56 1953.6 2773.93 1963.14C2704.99 1982.42 2633.22 1995.71 2563.22 2010.68C2555.77 2012.27 2545.5 2014.71 2538.16 2015.58C2508.42 2012.75 2487.89 2027.28 2468.52 2022.93L2467.26 2020.65C2471.74 2016.28 2471.74 2017.16 2478.88 2015.71C2487.33 2017.76 2508.44 2007.56 2518.49 2007.31C2523.92 2007.17 2535.31 2004.73 2541.14 2003.62L2542.58 2001.31C2537.26 2003.51 2477.14 2007.61 2467.89 2004.68C2460.23 2002.26 2455.09 1995.28 2446.21 1995.44C2443.4 1995.49 2441.56 1995.34 2438.8 1994.45C2446.69 1992.49 2453.14 1994.88 2462.39 1992.34C2470.87 1990.02 2481.74 1989.47 2491.11 1987.65L2491.98 1985.84L2486.37 1982.69L2487.13 1981.06C2505.36 1976.92 2522.5 1979.11 2529.96 1977.49L2527.46 1973.9C2534.25 1970.92 2570.73 1969.2 2576.85 1963.4L2573.5 1962.03C2573.46 1961.91 2571.59 1958.73 2571.44 1958.68C2552.16 1953.21 2493.36 1940.81 2476.78 1937.17L2480.17 1935.52L2480.99 1932.97C2478.15 1929.83 2478.56 1931.04 2477.26 1927.37L2481.5 1926.56Z"/><path fill="#F69933" d="M2469.03 1872.53C2473.55 1871 2522.7 1865.33 2529.61 1864.49L2530.82 1867.98C2539.74 1871.46 2543.51 1875.74 2551.36 1880.36C2557.66 1884.07 2566.67 1887.79 2573.48 1890.62C2564.68 1888.9 2553.54 1885.79 2545.27 1888.61L2545.64 1890.41C2561.58 1900.49 2573.08 1896.37 2588.3 1900.78C2652.55 1919.42 2722.09 1923.45 2785.1 1945.78C2790.8 1947.81 2793.01 1962.34 2791.72 1967.4C2790.33 1961.28 2788.76 1953.53 2783.28 1949.64C2766.55 1937.78 2603.58 1909.16 2571.56 1902.56C2561.55 1900.5 2549.24 1899.26 2539.81 1895.67C2526.75 1890.7 2520.79 1881.6 2505.06 1885.21C2499.92 1886.39 2493.76 1889.31 2491.66 1894.53C2490.27 1897.97 2490.53 1901.69 2492.55 1904.82C2495.41 1909.23 2501.39 1911.37 2506.31 1912.2C2515.41 1913.73 2524.02 1910 2533.05 1909.74C2547.89 1909.29 2573.37 1917.89 2588.09 1922.19L2585.87 1922.12C2574.53 1921.68 2545.52 1913.82 2541.04 1917.23L2542.3 1925.44C2530.15 1939.82 2496.11 1936 2481.5 1926.56C2482.65 1914.31 2468.07 1907.23 2466.37 1894.36C2465.6 1888.54 2468.62 1878.79 2472.19 1873.98L2469.03 1872.53Z"/><path fill="#F69933" d="M2394.88 2026.62C2387.16 2027 2375.96 2026.04 2368.9 2022.78L2368.74 2020.58C2394.56 1998.43 2449.68 2012.62 2478.88 2015.71C2471.74 2017.16 2471.74 2016.28 2467.26 2020.65L2468.52 2022.93C2487.89 2027.28 2508.42 2012.75 2538.16 2015.58C2525.82 2018.38 2487.06 2028.85 2476.68 2028.16C2444.51 2026.01 2428.51 2020.74 2394.88 2026.62Z"/><path fill="#F69933" d="M2129.24 2125.1C2139.63 2121.86 2159.08 2118.4 2170.26 2115.97L2252.76 2097.85C2294.85 2088.7 2342.94 2076.24 2385.08 2070.48C2413.98 2069.35 2438.43 2080.11 2468.02 2072.64C2490.65 2066.92 2488.86 2070.14 2494.66 2047.63C2500.06 2039.95 2535.35 2034.7 2546.05 2032.66C2536.59 2041.41 2509.57 2043 2499.52 2047.66C2505.76 2090.12 2437.37 2074.25 2417.99 2079.86C2438.53 2084.94 2468.72 2083.94 2489.04 2077.51L2497.45 2069.21L2499.22 2070.53C2498.47 2074.32 2497.94 2077.1 2494.52 2079.34C2453.53 2106.19 2403.79 2087.77 2357.83 2086.81C2362.36 2085.87 2368.01 2085.43 2371.07 2082.44C2369.63 2079.2 2366.16 2076.81 2362.54 2077.52C2347.19 2080.51 2331.95 2084.53 2316.67 2087.96L2203.32 2112.75C2182.53 2117.47 2149.52 2126.89 2129.24 2125.1Z"/><path fill="#E4540D" d="M2684.87 1881.19C2727.59 1888.73 2770.9 1902.18 2814.1 1908.97C2852.79 1915.05 2903.97 1928.58 2894.63 1979.47C2886.9 2021.54 2821.4 2027.2 2785.56 2034.74C2792.92 2018.62 2848.83 2016.89 2865.3 2008.5C2872.55 2004.81 2888.75 1985.02 2889.93 1979.65C2891.05 1974.53 2887.41 1953.3 2883.37 1947.13C2864.38 1918.11 2812.89 1917.07 2781.55 1910.16C2768.77 1906.43 2752.12 1909.81 2740.27 1903.74C2733.75 1900.41 2727.28 1900.16 2720.02 1898.9C2717.97 1895.15 2718.99 1896.36 2715.4 1893.95C2704.88 1893.03 2685.92 1890.02 2676.04 1885.64C2671.14 1883.47 2672.8 1883.4 2666.63 1882.4L2684.87 1881.19Z"/><path fill="#F69933" d="M1139.53 1931.77C1163.8 1959.15 1187.9 1941.33 1212.54 1946.42C1238.77 1951.83 1279.81 1963.92 1304.84 1973.85C1281.69 1976.13 1238.49 1950.32 1221.89 1955.74C1218.85 1956.73 1216.59 1957.42 1213.38 1957.41C1209.12 1957.39 1211.46 1957.12 1207.35 1958.01C1214.26 1958.21 1236.37 1961.34 1240.01 1967.05C1235.28 1968.28 1229.88 1965.17 1224.48 1964.84C1211.65 1964.03 1196.07 1970.21 1186.9 1958.48L1185.97 1960.7L1182.91 1961.76C1165.45 1959.35 1172.3 1960.54 1171.51 1952.45C1156.88 1944.24 1142.09 1952.13 1139.53 1931.77Z"/><path fill="#FEFEFD" d="M2740.61 2105.32C2751.98 2104.73 2779.01 2105.78 2785.75 2116.4L2784.73 2119.54C2779.48 2123.41 2775.01 2123.49 2768.42 2124.61C2756.7 2125.3 2732.17 2124.23 2724.58 2113.92L2725.18 2110.82C2729.8 2106.75 2734.45 2106.57 2740.61 2105.32Z"/><path fill="#FEFEFD" d="M1830.61 1995.9C1842.63 1994.57 1864.28 1994.14 1873.91 2002.43L1874.1 2005.35C1870.64 2009.39 1866.71 2010 1861.55 2011.71C1852.26 2012.47 1821.44 2013.97 1818.76 2003.03C1821.63 1998.79 1825.7 1997.91 1830.61 1995.9Z"/><path fill="#22488B" d="M1759.03 573.863C1815.06 570.945 1865.97 563.426 1913.62 604.677C1943.92 630.911 1967.02 695.593 1975.08 734.449L1973.81 737.312C1959.45 739.678 1945.11 742.138 1930.79 744.693C1921.17 747.634 1889.2 752.634 1879.49 752.415C1873.05 748.645 1867.89 733.836 1860.33 725.205C1819.36 678.406 1762.89 688.903 1709.42 702.905C1505.01 757.481 1300.99 813.48 1097.36 870.898L863.971 933.489C833.578 941.897 792.763 952.309 763.529 962.269C783.329 986.567 814.348 1014.27 836.769 1038.83C898.765 1028.15 961.895 1014.17 1023.2 999.932C1030.47 998.245 1043.17 999.013 1049.71 1002.96C1051.78 1006.75 1051.34 1004.69 1049.99 1009.46C1041.63 1019.72 996.786 1026.94 982.226 1029.59C905.588 1043.54 829.912 1062.08 752.981 1074.31C740.89 1076.22 726.969 1078.11 715.367 1081.61C707.347 1099.84 698.978 1117.92 690.264 1135.84C720.89 1131 751.62 1126.86 782.43 1123.4C787.943 1112.98 793.505 1102.42 805.451 1098.21C830.347 1089.43 845.307 1129.33 832.307 1145.6C815.742 1166.34 798.762 1158.48 785.987 1141.23C762.116 1146.34 708.04 1152.19 683.578 1153.76C675.152 1174.11 666.253 1196.96 657.19 1216.84C710.427 1213.81 765.186 1206.35 818.55 1202.34C836.152 1201.02 857.687 1196.87 874.43 1196.23C874.494 1212.82 874.123 1231.85 875.002 1248.23C875.199 1253.91 875.757 1261.33 874.935 1266.81C873.458 1290.87 874.51 1320.43 874.41 1344.93C874.36 1357.36 874.121 1385.49 875.296 1396.6C876.659 1405.33 876.394 1406.73 874.898 1415.5L873.594 1416.08C859.729 1413.49 807.476 1352.13 796.062 1339.07C673.491 1337.76 548.197 1343.08 424.705 1342.61C414.051 1340.28 399.427 1342.39 388.387 1342.6C364.997 1343.04 251.182 1347.83 240.602 1343.74C236.675 1342.22 235.443 1341.07 233.82 1337.27C239.674 1320.25 263.854 1325.2 279.172 1325.26C310.251 1325.2 341.33 1324.96 372.406 1324.54C386.524 1324.38 411.9 1325.19 424.926 1322.06C424.864 1291.84 424.674 1261.72 426.108 1231.52C426.52 1222.83 430.083 1196.71 425.097 1190.97C390.118 1199.94 347.98 1201.42 311.984 1206.76C299.807 1208.57 287.197 1209.01 275.059 1211.32C267.75 1212.59 267.038 1214.45 262.993 1219.87C239.266 1251.62 213.358 1203.69 238.606 1184.49C249.716 1176.05 259.294 1183.85 266.389 1194C287.754 1191.79 312.31 1190.45 333.523 1186.49C338.17 1185.62 339.155 1181.94 341.069 1178.21C346.724 1180.24 347.113 1179.98 349.994 1184.94C373.774 1182.84 406.411 1176.67 431.215 1173.47C431.896 1143.21 437.088 1113.6 440.598 1083.78C449.615 1021.74 453.786 994.639 514.448 969.962C536.436 961.018 683.351 919.321 688.976 913.343L687.938 911.284C670.479 891.568 651.389 876.577 631.962 853.494C630.551 852.074 629.333 850.185 627.805 850.674C582.16 865.287 511.269 892.756 467.883 907.664C463.876 908.02 463.249 907.508 459.773 905.529L458.82 906.362L458.33 906.095C460.584 902.926 459.655 904.105 462.071 901.195L463.74 899.208L462.259 895.614C468.287 890.973 597.194 846.973 612.352 841.956C616.478 843.093 616.222 843.242 620.343 842.299C621.623 839.156 621.767 838.748 623.646 835.947C626.61 836.376 628.405 836.541 631.359 836.77L632.582 834.299C652.52 824.666 689.658 812.479 711.778 804.562L835.785 759.895C839.579 747.712 857.61 705.527 864.288 694.931C854.417 676.697 848.376 652.978 871.587 641.526C879.026 637.906 887.62 637.474 895.385 640.329C913.172 647.006 916.723 666.801 910.131 682.966C904.828 695.969 891.871 697.998 879.61 699.757C872.167 717.567 864.387 735.234 856.273 752.748C866.999 749.258 908.15 733.653 914.35 736.138L915.807 739.366C910.94 751.271 864.218 764.638 851.204 767.537C835.664 811.905 805.229 865.677 787.958 910.975C794.808 909.363 817.136 902.795 821.432 902.767C829.157 883.863 827.308 867.975 849.654 861.157C881.563 851.422 913.654 841.914 945.431 831.763L1258.08 732.289C1372.09 694.65 1486.49 658.217 1601.27 622.997C1647.93 608.397 1712.9 584.452 1759.03 573.863ZM658.161 859.152C671.537 872.277 693.891 893.731 705.069 908.287C726.47 900.123 757.476 890.555 779.635 885.74C790.794 854.47 812.508 811.451 826.174 778.543C765.835 802.157 705.928 820.462 644.881 845.478C649.427 849.919 653.855 854.479 658.161 859.152ZM481.126 1166.44C494.653 1164.38 511.498 1162.29 524.66 1159.65C572.381 1153.53 621.852 1143.5 669.713 1139.71C677.533 1122.2 687.376 1100.85 693.115 1082.76C684.177 1085.63 675.23 1089.83 666.454 1089.32C660.607 1085.82 657.768 1080.78 663.149 1075.25C675.474 1071.36 690.442 1070.71 703.963 1067.76C710.234 1052.16 741.44 981.804 742.272 971.071C739.22 969.731 740.685 969.736 737.9 970.624C664.423 988.145 590.353 1009.14 517.793 1030C497.402 1035.87 490.361 1051.33 487.225 1070.85C482.189 1102.2 480.677 1134.71 481.126 1166.44ZM758.283 980.33C749.703 997.016 731.151 1043.36 725.584 1061.14C735.346 1059.19 767.483 1053.36 775.369 1050.79C790.705 1048.65 806.868 1044.93 822.104 1041.75C812.52 1031.75 768.804 984.621 758.283 980.33ZM659.899 1156.96C627.171 1162.92 594.343 1168.34 561.432 1173.2C538.646 1176.41 505.813 1179.79 484.107 1184.21C489.546 1197.57 493.791 1206.86 500.401 1219.67C502.062 1223.02 503.598 1228.06 507.116 1228.14C545.938 1229.04 597.803 1221.72 635.886 1219.96C640.002 1210.79 661.87 1164.7 661.297 1157.38L659.899 1156.96Z"/><path fill="#E4540D" d="M1759.03 573.863C1815.06 570.945 1865.97 563.426 1913.62 604.677C1943.92 630.911 1967.02 695.593 1975.08 734.449L1973.81 737.312C1959.45 739.678 1945.11 742.138 1930.79 744.693L1929.6 742.972C1923.31 733.682 1914.9 715.112 1909.54 704.534C1879.38 644.987 1812.03 627.397 1750.09 641.009C1658.32 661.178 1567.57 690.518 1477.11 716.571L968.98 860.983C937.238 869.601 905.587 878.552 874.033 887.835C867.03 889.911 826.507 902.575 821.432 902.767C829.157 883.863 827.308 867.975 849.654 861.157C881.563 851.422 913.654 841.914 945.431 831.763L1258.08 732.289C1372.09 694.65 1486.49 658.217 1601.27 622.997C1647.93 608.397 1712.9 584.452 1759.03 573.863Z"/><path fill="#BE572E" d="M427.941 1323.68C465.29 1321.33 505.176 1322.92 542.649 1321.55C628.246 1318.43 715.4 1319.88 800.716 1316.81C825.594 1344.54 848.09 1371.05 875.296 1396.6C876.659 1405.33 876.394 1406.73 874.898 1415.5L873.594 1416.08C859.729 1413.49 807.476 1352.13 796.062 1339.07C673.491 1337.76 548.197 1343.08 424.705 1342.61C414.051 1340.28 399.427 1342.39 388.387 1342.6C364.997 1343.04 251.182 1347.83 240.602 1343.74C236.675 1342.22 235.443 1341.07 233.82 1337.27C239.674 1320.25 263.854 1325.2 279.172 1325.26C310.251 1325.2 341.33 1324.96 372.406 1324.54C386.524 1324.38 411.9 1325.19 424.926 1322.06L427.941 1323.68Z"/><path fill="#FEFEFD" d="M856.565 1242.04C863.117 1241.78 868.255 1240.51 873.14 1243.74L875.002 1248.23C875.199 1253.91 875.757 1261.33 874.935 1266.81C855.849 1269.21 827.861 1269.94 808.138 1270.92L695.772 1276.68L587.144 1282.61C568.951 1283.53 548.379 1285.09 530.303 1284.17C521.197 1283.71 507.696 1274.36 499.78 1269.28C531.929 1268.91 569.675 1264.8 602.12 1262.57C616.743 1261.57 652.489 1259.21 665.237 1256.78C703.225 1254.36 741.195 1251.66 779.142 1248.66C802.88 1246.88 833.557 1245.35 856.565 1242.04Z"/><path fill="#073261" d="M631.962 853.494C645.497 855.312 654.968 870.143 669.21 880.865C663.82 871.992 655.513 869.42 658.161 859.152C671.537 872.277 693.891 893.731 705.069 908.287C696.43 908.407 698.161 907.552 689.684 901.997C687.222 905.963 688.078 905.918 687.938 911.284C670.479 891.568 651.389 876.577 631.962 853.494Z"/><path fill="#073261" d="M425.097 1190.97L422.461 1188.09C426.2 1185.72 426.481 1186.59 431.697 1186.56C438.301 1193.54 435.664 1226.96 434 1236.66C429.457 1263.13 432.977 1298.66 427.941 1323.68L424.926 1322.06C424.864 1291.84 424.674 1261.72 426.108 1231.52C426.52 1222.83 430.083 1196.71 425.097 1190.97Z"/><path fill="#073261" d="M665.237 1256.78C663.522 1256.15 664.498 1256.65 662.539 1254.9C673.693 1251.26 739.613 1247.88 758.645 1245.34L742.157 1244.95C754.543 1241.56 844.421 1237.35 856.565 1242.04C833.557 1245.35 802.88 1246.88 779.142 1248.66C741.195 1251.66 703.225 1254.36 665.237 1256.78Z"/><path fill="#183F7A" d="M589.397 1088.23C594.831 1086.99 600.267 1090.29 601.684 1095.68C603.101 1101.07 599.988 1106.61 594.648 1108.2C591.033 1109.28 587.117 1108.31 584.432 1105.66C581.747 1103 580.72 1099.1 581.754 1095.47C582.788 1091.84 585.718 1089.07 589.397 1088.23Z"/><path fill="#183F7A" d="M549.17 1098.76C553.713 1096.79 559.005 1098.76 561.15 1103.22C563.296 1107.69 561.528 1113.05 557.146 1115.36C554.162 1116.94 550.555 1116.75 547.745 1114.89C544.934 1113.02 543.37 1109.76 543.667 1106.4C543.964 1103.04 546.075 1100.11 549.17 1098.76Z"/><path fill="#22488B" d="M424.705 1342.61C548.197 1343.08 673.491 1337.76 796.062 1339.07C807.476 1352.13 859.729 1413.49 873.594 1416.08L874.898 1415.5L875.208 1473.76L875.079 1490.83C866.675 1635.57 903.44 1616.73 1025.15 1634.6C1030.11 1635.33 1048.68 1637.08 1052.57 1638.55L1062.94 1640.1C1063.33 1674.19 1063.21 1708.28 1062.57 1742.37C1041.03 1749.2 1017.39 1754.88 995.293 1759.99C940.712 1772.61 885.783 1787.65 831.078 1799.29C845.45 1800.88 865.111 1798.58 876.257 1800.22C865.348 1802.72 843.245 1800.16 827.136 1803.16C844.486 1807.68 881.603 1818.75 897.451 1817.87L899.627 1816.17C899.862 1810.46 900.176 1810.35 897.964 1804.86C893.56 1801.16 889.274 1801.11 883.495 1800.09C896.818 1799.09 909.724 1798.74 912.9 1815.38C911.535 1820.92 913.04 1818.89 908.561 1821.89L895.058 1821.74C902.69 1825.78 996.683 1852.98 1009.44 1856.19C1012.36 1847.41 1012.83 1841.79 1021.63 1837.7L1022.91 1838.91L1021.35 1843.47C1034.45 1842.49 1040.05 1839.36 1051.66 1849.14C1059.56 1855.92 1064.21 1865.73 1064.45 1876.14C1065.03 1900.89 1050.89 1897.66 1042.8 1908.1C1037.06 1905.99 1032.54 1906.61 1026.77 1903.97C1014.56 1898.38 1012.61 1887.34 1008.92 1875.66C992.8 1870.23 970.449 1865.22 953.378 1860.3L791.346 1814.18C721.89 1793.88 653.248 1771.71 583.323 1753.47C562.51 1748.04 542.306 1740.85 521.198 1736.06C526.281 1748.35 531.545 1769.94 535.052 1783.38L533.242 1788.91C528.752 1788.47 528.932 1788.2 525.017 1785.76L522.428 1787.22L521.636 1790.81C518.064 1784.66 505.381 1740 505.079 1732.15L506.447 1730.92C507.158 1725.57 506.62 1726.9 502.989 1720.98L504.222 1720.75L503.232 1722.88L502.645 1721.5L503.62 1721.24L503.057 1722.41C488.521 1719.4 495.391 1724.69 477.972 1715.17C484.406 1717.18 494.071 1720.83 500.338 1718.13C509.57 1704.09 490.102 1679.57 487.98 1669.41C489.953 1665.6 488.519 1666.99 492.501 1665.17L500.887 1669.2C503.236 1672.82 513.099 1711.27 514.917 1718.03C525.872 1719.99 535.812 1722.58 546.507 1725.43C627.94 1747.07 709.226 1771.03 791.103 1790.9C803.755 1784.85 817.147 1782.81 830.66 1779.61C902.108 1762.68 972.59 1741.97 1044.56 1727.06C1045.35 1726.25 1046.14 1725.44 1046.93 1724.63C1048.44 1718.56 1048.76 1721.37 1046.18 1715.88C1037.29 1709.22 1026.04 1709.34 1015.36 1707.89C963.912 1700.91 914.141 1690.86 863.386 1680.43C851.907 1693.28 836.483 1718.51 818.315 1721.48C731.816 1735.63 687.517 1741.81 661.137 1647.04C617.369 1640.62 559.825 1632.13 518 1617.15C502.618 1612.13 486.99 1597.98 473.512 1591.55C418.703 1565.4 427.721 1537.81 427.005 1482.44C412.479 1481.4 391.53 1482.16 376.541 1482.24C368.6 1494.07 358.763 1500.66 344.652 1495.34C301.371 1479.03 353.203 1394.92 375.753 1459.73C392.351 1460.41 409.314 1460.26 425.952 1460.31C426.404 1441.32 425.677 1420.15 425.36 1400.98C394.64 1402.05 363.849 1400.28 333.173 1399.55C318.771 1399.21 296.005 1396.98 282.928 1398.51C266.197 1426.29 245.408 1394.78 261.845 1371.94C265.79 1368.55 267.227 1368.62 271.225 1368.58C276.501 1371.58 278.295 1376.27 281.298 1381.66C328.4 1381.26 377.074 1384.48 424.824 1384.79L424.705 1342.61ZM744.582 1540.33C740.022 1535.17 733.714 1527.4 726.123 1526.85C684.988 1523.83 682.281 1586.01 686.673 1614.38C689.528 1632.83 701.765 1671.39 724.603 1671.88C730.075 1672.03 735.351 1669.84 739.116 1665.87C740.924 1663.99 742.605 1661.87 744.245 1659.83C746.903 1654.66 749.19 1649.31 751.089 1643.81C762.693 1610.63 759.883 1571.93 744.582 1540.33Z"/><path fill="#FEFEFD" d="M531.74 1400.67C501.748 1452.08 476.302 1371.81 512.313 1368.3C518.782 1367.67 527.502 1379.38 530.78 1384.36L776.581 1389.27C797.826 1412.64 822.786 1450.93 844.517 1471.7C854.58 1473.31 865.003 1473.39 875.208 1473.76L875.079 1490.83C864.17 1491.41 849.525 1490.54 838.297 1490.17C815.481 1465.1 795.463 1433.77 769.781 1406.47C690.452 1403.88 611.102 1401.94 531.74 1400.67Z"/><path fill="#183F7A" d="M1052.57 1638.55L1062.94 1640.1C1063.33 1674.19 1063.21 1708.28 1062.57 1742.37C1041.03 1749.2 1017.39 1754.88 995.293 1759.99C940.712 1772.61 885.783 1787.65 831.078 1799.29L828.809 1798.33L828.837 1796.72C839.227 1792.93 860.139 1788.61 871.545 1785.91L946.884 1768.05C977.194 1760.87 1005.48 1748.91 1036.26 1743.82C1046.12 1742.19 1050.4 1741.18 1058.84 1735.82C1060.13 1708.41 1059.75 1675.25 1058.06 1647.39C1057.92 1645.07 1054.22 1640.5 1052.57 1638.55Z"/><path fill="#FEFEFD" d="M576.197 1437.67C643.206 1432.15 592.578 1542.43 560.285 1475.14C531.578 1474.61 490.778 1470 461.319 1467.59C445.356 1466.09 429.385 1464.69 413.405 1463.37C417.494 1461.93 420.906 1461.99 425.301 1461.57C430.769 1454.46 425.176 1456.19 429.439 1447.97C442.397 1446.82 459.159 1449.76 472.442 1450.71C500.546 1452.7 529.998 1456.57 558.079 1457.13C564.408 1447.6 566.816 1444.23 576.197 1437.67Z"/><path fill="#073261" d="M577.758 1452.69C597.47 1453.03 598.559 1467.29 588.242 1480.29C569.129 1478.6 567.643 1466.46 577.758 1452.69Z"/><path fill="#22488B" d="M579.117 1458.29C584.13 1459.1 583.765 1459.06 587.623 1462.42C589.039 1468.05 588.982 1465.21 587.156 1471.22C582.411 1470.35 580.164 1470.37 576.307 1467.44C575.665 1462.3 575.931 1463.84 579.117 1458.29Z"/><path fill="#FEFEFD" d="M702.519 1442.72C736.2 1441.98 750.171 1461.01 765.901 1487.06C731.6 1448.63 695.984 1451 666.343 1495.52C657.569 1508.7 653.909 1522.89 649.592 1538.06C643.096 1569.75 644.871 1591.03 640.379 1619.71C639.548 1616.53 638.835 1613.32 638.241 1610.09C629.322 1559.56 638.425 1453.85 702.519 1442.72Z"/><path fill="#073261" d="M744.582 1540.33C774.903 1547.02 773.739 1646.16 746.82 1662.97C744.514 1660.55 745.237 1661.69 744.245 1659.83C746.903 1654.66 749.19 1649.31 751.089 1643.81C762.693 1610.63 759.883 1571.93 744.582 1540.33Z"/><path fill="#073261" d="M788.592 2372.47C819.741 2370.69 856.891 2371.31 888.738 2371.87C940.354 2372.76 1013.3 2363.28 1056.71 2395.43C1101.55 2428.65 1097.47 2488.89 1098.09 2537.89C1099.26 2630.87 1102.63 2709.04 989.037 2720.09C965.064 2721.64 926.954 2720.51 901.353 2720.62C857.177 2719.98 813.226 2723.42 769.418 2717.14C719.804 2710.04 686.428 2682.13 679.142 2631.19C675.103 2602.94 674.073 2574.64 674.788 2545.67C675.849 2502.71 670.559 2452.45 696.006 2415.04C718.144 2384.08 753.49 2377.26 788.592 2372.47ZM944.664 2653.47C977.888 2653.56 1014.49 2655.84 1020.15 2613.71C1025.24 2575.75 1021.86 2534.05 1022.17 2495.78C1022.52 2453.97 995.898 2437.77 957.414 2438.09C914.911 2437.64 872.715 2437.95 830.312 2438.25C795.685 2438.74 760.573 2436.04 752.816 2479.03C748.128 2505.01 750.389 2529.47 749.739 2554.86C747.255 2651.89 761.368 2654.15 848.48 2653.76L944.664 2653.47Z"/><path fill="#073261" d="M233.559 2372.06C329.54 2371.52 426.272 2374.85 522.375 2373.08C549.75 2372.57 576.94 2381.32 595.246 2402.36C612.643 2422.35 614.905 2448.87 612.721 2474.33C609.417 2506.33 602.167 2519.96 577.929 2540.08C607.212 2558.99 618.194 2578.59 619.44 2613.72C620.415 2641.19 617.724 2657.8 607.068 2682.79C588.743 2708.39 553.132 2721.62 523.984 2719.41C484.57 2716.41 249.959 2727.32 229.087 2715.18C223.973 2697.08 225.548 2647.5 225.508 2625.93L225.375 2501.87C225.393 2464.74 224.334 2418.4 227.812 2381.09C228.254 2376.35 230.458 2375.16 233.559 2372.06ZM302.801 2654.68C343.821 2655.16 384.844 2655.25 425.866 2654.94C441.376 2654.89 470.697 2653.88 485.278 2654.93C498.75 2654.73 523.233 2655.87 532.848 2646.14C547.545 2631.28 545.483 2594.61 531.633 2579.66C522.545 2569.85 502.515 2571.72 490.026 2571.5L302.686 2571.45L302.801 2654.68ZM302.888 2515.09C346.817 2515.43 390.747 2515.52 434.677 2515.35C457.795 2515.28 510.028 2518.46 528.694 2506.35C547.84 2480.81 543.051 2438.16 505.604 2435.59C480.939 2433.9 455.782 2434.77 431.033 2434.89C388.563 2435.1 346.094 2435.03 303.626 2434.67C301.632 2455.96 302.741 2492.63 302.888 2515.09Z"/><path fill="#183F7A" d="M490.026 2571.5C467.322 2564.8 307.698 2573.97 302.696 2567.84C310.157 2561.32 483.195 2566.42 506.213 2564.8C521.837 2565.69 529.079 2567.27 538.145 2577.98C562.768 2607.05 551.324 2661.26 509.603 2660.66C483.019 2660.27 317.017 2667.06 303.863 2658.98L304.58 2658.15C347.178 2656.84 436.229 2657.28 483.468 2656.64C484.071 2656.07 484.675 2655.5 485.278 2654.93C498.75 2654.73 523.233 2655.87 532.848 2646.14C547.545 2631.28 545.483 2594.61 531.633 2579.66C522.545 2569.85 502.515 2571.72 490.026 2571.5Z"/><path fill="#073261" d="M2195.86 2374.24C2232.13 2371.71 2269.22 2365.84 2288.4 2401.26C2344.75 2505.28 2406.62 2607.14 2460.13 2712.38C2461.1 2714.28 2459.07 2715.54 2457.88 2716.83C2444.03 2721.63 2397.67 2719.44 2380.72 2718.77C2369.44 2705.73 2352.08 2666.85 2341.1 2648.26C2314.35 2646.69 2283.71 2647.34 2256.64 2647.34L2109.43 2646.64C2096.77 2670.55 2083.97 2695.79 2069.24 2718.38C2058.08 2719.23 1997.03 2721.39 1990.1 2717.01C1989.96 2713.27 1990.48 2711.89 1992.15 2708.61C2040.38 2614.25 2092.93 2522.2 2143.18 2428.92C2150.63 2415.1 2157.81 2401.05 2167.55 2388.69C2175.92 2378.05 2182.87 2375.64 2195.86 2374.24ZM2230.47 2588.8L2307.75 2588.69C2297.86 2567.75 2236.44 2442.72 2221.2 2438.19C2211.74 2452.95 2143.94 2580.15 2144.44 2585.97C2151.48 2590.91 2217.37 2588.84 2230.47 2588.8Z"/><path fill="#073261" d="M1594.4 2436.56C1589.65 2425.59 1587.71 2386.2 1595.1 2375.76C1606.15 2372.35 1670.25 2372.44 1682.8 2373.47C1744.79 2378.56 1862.74 2361.54 1915.81 2385.25C1956.08 2403.59 1959.69 2439.39 1957.6 2478.21C1955.97 2508.74 1948.6 2525.09 1922.81 2542.21C1942.17 2555.34 1958.61 2569.03 1962 2594.12C1965.95 2623.36 1967.15 2659.51 1949.18 2684.69C1922.3 2722.33 1869.48 2719.21 1828.86 2719.31L1742.36 2719.43L1641.26 2719.6C1617.61 2719.67 1587.79 2728.94 1588.54 2694.71C1588.76 2684.77 1586.73 2665.44 1593.21 2657.74C1610.5 2648.36 1826.98 2661.4 1871.15 2651.58C1882.03 2641.83 1886.61 2635.3 1886.92 2620.36C1887.69 2583.68 1874.79 2575.14 1840.93 2574.97L1704.01 2575.23C1687.72 2575.26 1651.01 2576.4 1636.8 2574.13C1628.5 2565.65 1628.96 2525.6 1634.65 2516.15C1649.51 2508.7 1830.56 2522.55 1872.32 2510.4C1886.7 2492.75 1888.45 2474.26 1879.62 2453.23C1873.44 2447.24 1868.46 2443.3 1860.04 2441.04C1818.41 2429.87 1607.28 2446.58 1594.4 2436.56Z"/><path fill="#183F7A" d="M1594.4 2436.56C1589.65 2425.59 1587.71 2386.2 1595.1 2375.76C1606.15 2372.35 1670.25 2372.44 1682.8 2373.47C1744.79 2378.56 1862.74 2361.54 1915.81 2385.25C1900.76 2389.15 1877 2379.84 1859.67 2379.14C1829.9 2377.93 1800.51 2381.73 1771.12 2380.1L1777.4 2379.53C1720.31 2377.37 1662.01 2379.37 1604.83 2379.38C1598.78 2379.38 1595.66 2392.91 1595.58 2397.88C1595.4 2408.97 1597.91 2426.63 1594.4 2436.56Z"/><path fill="#073261" d="M2664.24 2487.13C2656.32 2551.54 2643.81 2658.76 2590.73 2700.67C2563.6 2722.08 2533.63 2720.67 2500.68 2719.89C2497.36 2719.81 2490.65 2717.44 2489.22 2715.01C2483.6 2705.45 2484.48 2668.3 2486.37 2659.38C2498.65 2645.75 2536.35 2661.42 2552.42 2631.8C2589.71 2563.09 2589.57 2475.5 2604.34 2399.88C2608.59 2378.13 2619.31 2372.95 2639.82 2372.7C2673.83 2372.27 2707.81 2373.46 2741.82 2373.63C2770.12 2374.73 2879.56 2371.11 2897.29 2376.54C2902.33 2394.91 2900.38 2430.27 2900.36 2450.89L2900.35 2550.36L2900.41 2656.84C2900.41 2667.6 2901.98 2711.39 2897.87 2718.99C2888.07 2720.46 2836.51 2720.85 2828.15 2717.47C2820.62 2700.11 2825.26 2477.35 2824.29 2438.5L2674 2437.71C2667.98 2455.58 2668.31 2469.5 2664.24 2487.13Z"/><path fill="#183F7A" d="M2664.24 2487.13C2656.32 2551.54 2643.81 2658.76 2590.73 2700.67C2563.6 2722.08 2533.63 2720.67 2500.68 2719.89C2497.36 2719.81 2490.65 2717.44 2489.22 2715.01C2483.6 2705.45 2484.48 2668.3 2486.37 2659.38C2498.65 2645.75 2536.35 2661.42 2552.42 2631.8C2589.71 2563.09 2589.57 2475.5 2604.34 2399.88C2608.59 2378.13 2619.31 2372.95 2639.82 2372.7C2673.83 2372.27 2707.81 2373.46 2741.82 2373.63C2770.12 2374.73 2879.56 2371.11 2897.29 2376.54C2902.33 2394.91 2900.38 2430.27 2900.36 2450.89L2900.35 2550.36L2900.41 2656.84C2900.41 2667.6 2901.98 2711.39 2897.87 2718.99C2894.88 2711.32 2896.18 2659.73 2896.21 2648.62L2895.76 2488.42C2895.75 2470.32 2898.55 2392.6 2889.93 2381C2872.93 2374.66 2781.59 2380.25 2757.16 2379.05C2721.14 2377.29 2678.46 2380.19 2641.89 2378.68C2626.79 2378.05 2625.5 2381.87 2615.77 2392.01C2601.26 2436.03 2604.49 2494.62 2591.15 2541.97C2573.23 2605.55 2577.24 2662.22 2491.42 2660.15C2491.47 2671.77 2489.03 2700.5 2494.14 2709.1C2506.9 2716.2 2537.45 2711.84 2551.72 2709.52C2555.92 2708.83 2571.92 2705.83 2574.65 2703.06C2584.93 2692.27 2600.15 2683.38 2608.28 2670.62C2623.1 2647.36 2632.6 2619.73 2639.89 2593.36C2649.26 2559.45 2649.95 2524.37 2659.97 2490.8C2661.39 2489.57 2662.81 2488.35 2664.24 2487.13Z"/><path fill="#073261" d="M1173.74 2372.09C1189.08 2372.02 1228.37 2369.91 1239.48 2375.83C1244.21 2387.61 1241.78 2492.79 1241.72 2512.91C1261.89 2512.93 1315.41 2514.21 1333.11 2510.44C1362.31 2504.21 1397.94 2441.98 1417.68 2418.56C1432.37 2401.13 1439.47 2390.31 1458.12 2373.33C1470.08 2372.57 1529.14 2370.61 1536.73 2377.06C1537.26 2393.07 1495.45 2436.05 1484.38 2450.24C1459.52 2482.1 1438.4 2512.93 1405.91 2537.62C1448.15 2574.09 1469.58 2609.92 1504.65 2651.82C1513.82 2664.28 1550.58 2703.15 1548.03 2715.38C1539.9 2722.53 1483.08 2719.67 1468.78 2719.51L1467.52 2718.42C1429.59 2685.96 1403.83 2632.78 1368.45 2597.24C1343.87 2572.55 1321.3 2574.38 1289.2 2574.88C1273.74 2575.12 1257.93 2575.22 1242.45 2575.43L1242.13 2662.31C1242.07 2676.82 1242.68 2702.12 1240.42 2715.56C1235.2 2722.84 1177.45 2721.49 1167.82 2715.95C1165.15 2712.29 1164.98 2706.2 1164.96 2701.5C1164.44 2595.81 1164.32 2489.91 1165 2384.29C1165.04 2377.71 1169.04 2375.35 1173.74 2372.09Z"/><path fill="#E4540D" d="M1560.34 558.462C1576.57 558.34 1642.69 562.787 1654.9 571.944L1654.67 573.866C1634.31 583.38 1585 597.596 1561.4 604.929L1442.48 643.094C1345.11 673.614 1242.64 709.563 1145.71 737.757C1120.09 744.755 1095.15 754.531 1069.57 760.492C1109.18 699.033 1114.85 703.1 1182.78 679.813L1303.36 639.488L1440.18 592.741C1478.5 579.413 1519.89 561.3 1560.34 558.462Z"/><path fill="#22488B" d="M1060.26 1926.56C1064.73 1927.97 1064.44 1928.03 1069.07 1927.66C1072.47 1932.61 1077.7 1939.43 1079.53 1944.87C1059.06 1945.4 996.036 1960.88 975.681 1965.87C932.678 1976.78 889.483 1986.91 846.115 1996.26L1018.37 2068.25C1056.32 2084.2 1094.38 2099.97 1133 2114.26C1147.18 2120.39 1160.46 2114.63 1175.66 2113.6C1225.46 2110.24 1265.48 2151.65 1197.56 2170.33C1177.79 2175.76 1150.47 2170.3 1132.96 2160.46C1118.01 2152.06 1129.47 2134.27 1113.83 2128.53C1091.89 2117.12 1069.52 2110.76 1046.92 2101.47C995.106 2079.99 943.455 2058.12 891.971 2035.87C864.148 2024 839.656 2016.36 812.516 2002.03C778.682 2007.14 762.303 2019.59 726.797 2015.6C729.428 2010.13 731.098 2007.19 734.37 2002.07C749.688 1992.12 1031.29 1934.02 1057.92 1929.87L1060.26 1926.56ZM1201.16 2149.23C1206.64 2146.48 1206.88 2147.55 1208.96 2143.14C1202.27 2130.43 1171.5 2129.9 1158.26 2131.75C1153.88 2134.49 1151.36 2135.33 1149.67 2140.12C1154.06 2156.08 1189.19 2151.86 1201.16 2149.23Z"/><path fill="#22488B" d="M699.488 1922.8L697.841 1922.12C653.219 1904.01 596.981 1888.56 550.997 1870.5C541.471 1866.76 483.258 1845.58 477.083 1844.33C469.458 1850.77 468.621 1854.5 457.292 1853.91C434.36 1852.74 432.491 1811.39 449.067 1801.89C463.578 1793.58 474.37 1816.37 478.614 1825.69L697.653 1904.5C727.319 1897.99 760.871 1889.65 789.906 1880.69C757.282 1871.49 724.885 1861.51 692.741 1850.75C684.404 1848.02 659.106 1840.3 651.891 1837.02L653.509 1834.02C651.057 1827.8 652.872 1830.57 647.063 1825.99C653.535 1826 658.757 1826.89 664.348 1823.29C701.124 1834.83 737.837 1846.57 774.486 1858.51C785.349 1862.07 834.666 1881.42 841.066 1875.68C863.822 1855.25 874.577 1862.87 888.391 1887.39C891.485 1893 891.516 1905.22 887.849 1911.55C865.314 1942.73 843.95 1920.48 832.936 1898.42C825.951 1896.12 819.15 1893.7 811.973 1892.13C777.593 1903.47 735.127 1913.17 699.488 1922.8Z"/><path fill="#183F7A" d="M612.352 841.956L614.811 838.486L613.504 835.158C599.034 823.529 409.863 831.432 379.5 830.116C377.419 830.026 368.697 846.495 364.926 848.118C313.284 870.335 308.415 776.206 363.666 794.415L365.853 795.158C372.693 802.594 373.761 804.094 378.5 813.016C455.819 812.462 533.142 812.712 610.456 813.765C618.726 820.194 623.581 827.467 632.582 834.299L631.359 836.77C628.405 836.541 626.61 836.376 623.646 835.947C621.767 838.748 621.623 839.156 620.343 842.299C616.222 843.242 616.478 843.093 612.352 841.956Z"/><path fill="#183F7A" fill-opacity="0.98431373" d="M484.08 1665.77C468.673 1662.35 453.243 1658.81 437.904 1655.09C428.59 1652.84 420.732 1652.69 418.127 1642.44C419.221 1639.46 419.295 1637.73 423.281 1636.48C434.617 1632.92 488.323 1649.32 496.548 1653.99C500.023 1658.87 500.005 1663.2 500.887 1669.2L492.501 1665.17C488.519 1666.99 489.953 1665.6 487.98 1669.41C490.102 1679.57 509.57 1704.09 500.338 1718.13C494.071 1720.83 484.406 1717.18 477.972 1715.17C495.391 1724.69 488.521 1719.4 503.057 1722.41L503.62 1721.24L502.645 1721.5L503.232 1722.88L504.222 1720.75L502.989 1720.98C506.62 1726.9 507.158 1725.57 506.447 1730.92L505.079 1732.15C501.009 1729.44 459.212 1717.85 450.553 1715.3C395.49 1699.49 340.576 1683.16 285.819 1666.32C273.757 1662.67 216.449 1648.2 211.967 1641.43L214.064 1639.82C223.837 1639.87 260.217 1648.97 271.121 1651.89C345.776 1671.87 424.259 1691.48 497.888 1714.26C492.964 1699.83 488.588 1680.95 484.08 1665.77Z"/><path fill="#183F7A" fill-opacity="0.98823529" d="M341.069 1178.21C374.744 1087.48 411.13 995.971 448.07 906.535C451.192 898.976 455.12 897.958 462.259 895.614L463.74 899.208L462.071 901.195C459.655 904.105 460.584 902.926 458.33 906.095L458.82 906.362L459.773 905.529C463.249 907.508 463.876 908.02 467.883 907.664C461.417 910.429 458.736 910.111 456.159 916.482L382.561 1103C377.251 1116.28 351.753 1175.69 349.994 1184.94C347.113 1179.98 346.724 1180.24 341.069 1178.21Z"/><path fill="#22488B" d="M350.483 906.36C357.984 905.964 366.631 906.134 374.235 906.092C376.024 944.997 374.325 995.869 374.075 1035.73C366.817 1036.71 357.168 1036.35 349.672 1036.33C349.314 995.705 348.684 946.524 350.483 906.36Z"/><path fill="#22488B" d="M309.18 948.204L334.496 948.327C334.377 961.168 335.769 1029.58 332.423 1036.93C324.809 1037.36 315.394 1037.11 307.634 1037.11C307.035 1021.59 306.914 962.558 309.18 948.204Z"/><path fill="#183F7A" d="M535.052 1783.38C562.942 1788.19 633.165 1813.62 664.348 1823.29C658.757 1826.89 653.535 1826 647.063 1825.99C652.872 1830.57 651.057 1827.8 653.509 1834.02L651.891 1837.02C610.097 1825.48 568.169 1809.07 526.501 1796.68C522.275 1795.43 522.85 1794.44 521.636 1790.81L522.428 1787.22L525.017 1785.76C528.932 1788.2 528.752 1788.47 533.242 1788.91L535.052 1783.38Z"/><path fill="#E16619" d="M1028.48 756.613C1032.31 756.747 1030.64 756.076 1033.49 758.617C1034.14 765.496 1034.98 763.932 1032.37 769.327C1021.48 776.561 908.28 809.709 889.447 814.056C884.766 814.132 886.802 814.808 883.107 812.036L882.976 808.419C889.84 800.331 1005.86 764.307 1028.48 756.613Z"/><path fill="#E16619" d="M333.936 1255.93C343.986 1255.9 344.63 1256.3 352.572 1262.39C366.119 1262.41 393.365 1258 402.561 1265.37C405.067 1276.87 396.133 1277.57 387.891 1278.28L355.397 1278.84C349.996 1286.84 347.341 1292.5 336.755 1289.78C326.188 1280.71 327.675 1267.12 333.936 1255.93Z"/><path fill="#22488B" d="M606.82 699.983C633.235 701.163 637.943 731.284 611.896 743.86C586.548 740.228 582.961 711.957 606.82 699.983Z"/><path fill="#E4540D" d="M271.989 986.682C274.705 986.623 287.196 985.817 287.893 989.281C290.733 1003.42 289.783 1020.8 288.42 1035.28C288.182 1037.81 286.552 1037.87 284.412 1039.11C278.401 1038.97 273.083 1039.52 267.956 1036.52C264.194 1027.81 264.594 996.58 267.638 988.6L271.989 986.682Z"/><path fill="#64A2C9" d="M2588.38 1066.73C2594.71 1059.21 2620.71 1025.59 2629.44 1021.84C2631.38 1021.01 2634.08 1021.97 2636.13 1022.81C2638 1033.44 2616.26 1057.66 2608.95 1066.98C2602.56 1071.14 2600.06 1077.14 2591.99 1077.5C2588.01 1072.71 2589.26 1074.03 2588.38 1066.73Z"/><path fill="#22488B" d="M698.663 2000.16C718.053 2000.21 732.419 2021.14 711.191 2033.7C690.235 2035.18 681.417 2013.58 698.663 2000.16Z"/><path fill="#FEFEFD" fill-opacity="0.043137256" d="M883.495 1800.09C889.274 1801.11 893.56 1801.16 897.964 1804.86C900.176 1810.35 899.862 1810.46 899.627 1816.17L897.451 1817.87C881.603 1818.75 844.486 1807.68 827.136 1803.16C843.245 1800.16 865.348 1802.72 876.257 1800.22L883.495 1800.09Z"/><path fill="#E16619" d="M137.884 1321.73C158.713 1323.41 162.109 1340.36 145.658 1352.97C123.776 1354.5 121.968 1331.92 137.884 1321.73Z"/><path fill="#E4540D" d="M139.33 1330.32C140.731 1330.55 143.274 1331.44 144.729 1331.89C147.919 1336.33 148.433 1340.28 145.45 1344.89C140.28 1343.3 139.632 1343.52 135.64 1339.74C135.296 1334.34 135.515 1335.93 139.33 1330.32Z"/><path fill="#E16619" d="M192.131 1326.16C194.926 1324.49 198.216 1323.84 201.436 1324.33C208.171 1325.36 213.192 1331.07 213.339 1337.89C213.485 1344.7 208.713 1350.62 202.029 1351.94C195.344 1353.25 188.684 1349.57 186.242 1343.21C183.8 1336.85 186.285 1329.66 192.131 1326.16Z"/><path fill="#E4540D" d="M192.131 1326.16C194.926 1324.49 198.216 1323.84 201.436 1324.33C203.795 1332.57 205.067 1332.55 202.177 1339.47C197.45 1343.01 199.924 1342.48 194.715 1341.9C188.255 1335.98 189.929 1334.51 192.131 1326.16Z"/><path fill="#22488B" d="M381.212 1621.59C398.359 1623.55 400.104 1634.62 389.991 1646.72C373.535 1646.22 372.345 1632.91 381.212 1621.59Z"/><path fill="#FEFEFD" fill-opacity="0.19215687" d="M2295.03 2147.92C2308.53 2144.19 2321.09 2140.88 2334.93 2138.53C2324.1 2143.88 2316.85 2145.6 2305.13 2148.86C2314.97 2152.26 2370.62 2170.45 2376.84 2175.5C2357.68 2171.82 2313.83 2155.26 2295.03 2147.92Z"/><path fill="#FEFEFD" fill-opacity="0.086274512" d="M1684.11 2146.94L1705.18 2153.58C1698.26 2155.32 1683.98 2159.28 1677.6 2160.02C1682.02 2155.18 1683.05 2157.41 1687.1 2152.82L1684.11 2146.94Z"/></svg>